<?xml version="1.0" encoding="utf-8"?>
<!-- Generator: Adobe Illustrator 24.3.0, SVG Export Plug-In . SVG Version: 6.00 Build 0)  -->
<svg version="1.1" id="Calque_1" xmlns="http://www.w3.org/2000/svg" xmlns:xlink="http://www.w3.org/1999/xlink" x="0px" y="0px"
	 viewBox="0 0 184.25 263.62" style="enable-background:new 0 0 184.25 263.62;" xml:space="preserve">
<style type="text/css">
	.st0{fill:#972D28;}
	.st1{fill:#FFFFFF;}
	.st2{fill:#CB1C21;}
	.st3{fill:#CB1E22;}
	.st4{fill:#9B633B;}
	.st5{fill:#020203;}
</style>
<rect x="37.4" y="0" class="st0" width="102.1" height="172.06"/>
<path class="st1" d="M136.59,60.97c-0.74-9.31-2.99-18.36-6.29-27.08c-3.7-9.78-7.48-19.56-13.98-27.96
	c-0.85-0.68-1.86-0.72-2.9-0.88c-8.25-1.23-16.54-1.6-24.83-1.61v0c-0.03,0-0.07,0-0.1,0c-0.03,0-0.07,0-0.1,0v0
	C80.09,3.45,71.8,3.82,63.55,5.05c-1.04,0.15-2.05,0.2-2.9,0.88c-6.5,8.41-10.28,18.19-13.98,27.96c-3.3,8.72-5.55,17.77-6.29,27.08
	c-0.65,8.13,2.31,15.21,7.66,21.27c4.77,5.4,10.73,9.36,16.97,12.82c4.08,2.26,8.02,4.78,12.18,6.86c6.06,3.03,8.52,7.99,8.81,14.38
	c0.09,2.06,0.11,4.13,0.12,6.2c-0.01,7.22-0.04,14.44,0.02,21.66c0.03,3.06,0,29.16,0,31.14h2.23h0.2h2.23
	c0-1.98-0.03-28.08,0-31.14c0.07-7.22,0.03-14.44,0.02-21.66c0.01-2.07,0.03-4.14,0.12-6.2c0.29-6.39,2.75-11.34,8.81-14.38
	c4.16-2.08,8.1-4.6,12.18-6.86c6.25-3.46,12.2-7.42,16.97-12.82C134.28,76.19,137.23,69.11,136.59,60.97z"/>
<g>
	<path class="st0" d="M132.57,58.54c-14.25,1.79-28.53,2.63-42.84,2.6c-14.31,0.03-28.59-0.82-42.84-2.6
		c-2.07,6.95,0.58,12.82,4.7,18.24c3.72,4.89,8.84,8.24,14.14,11.38c6.23,3.69,13.28,6.04,18.84,10.83
		c0.69,0.59,2.82,0.86,5.05,0.87v0c0.03,0,0.07,0,0.1,0c0.03,0,0.07,0,0.1,0v0c2.23-0.01,2.36-0.29,3.05-0.87
		c5.57-4.79,14.62-7.14,20.85-10.83c5.3-3.14,10.43-6.49,14.14-11.38C131.98,71.36,134.64,65.48,132.57,58.54z"/>
	<ellipse class="st2" cx="89.72" cy="58.54" rx="42.85" ry="3.41"/>
</g>
<ellipse class="st3" cx="88.58" cy="6.13" rx="28.12" ry="3.23"/>
<g>
	<path class="st4" d="M14.96,191.84c0-0.77-0.06-1.33-0.18-1.68s-0.18-0.67-0.18-0.96c0-0.4,0.21-0.73,0.64-1
		c0.43-0.27,0.94-0.4,1.52-0.4c1.36,0,2.47,0.35,3.31,1.06c0.84,0.71,1.26,1.56,1.26,2.58v30.3c0,1.97,0.16,3.65,0.48,5.03
		c0.32,1.38,0.8,2.52,1.44,3.39s1.43,1.52,2.37,1.94c0.94,0.41,2.01,0.62,3.21,0.62c1.15,0,2.21-0.21,3.19-0.64
		c0.98-0.43,1.83-1.01,2.55-1.76c0.72-0.74,1.28-1.62,1.68-2.63c0.4-1.01,0.6-2.12,0.6-3.31c0-1.84-0.32-3.37-0.96-4.59
		c-0.64-1.22-1.48-2.21-2.51-2.95c-1.03-0.74-2.19-1.27-3.49-1.58c-1.3-0.31-2.59-0.46-3.87-0.46c-0.24,0-0.48-0.15-0.72-0.46
		c-0.24-0.31-0.44-0.68-0.6-1.14c-0.16-0.45-0.28-0.94-0.36-1.46s-0.09-1-0.04-1.46c0.05-0.45,0.18-0.83,0.38-1.14
		c0.2-0.31,0.51-0.46,0.94-0.46c0.64,0,1.42-0.08,2.33-0.24c0.91-0.16,1.86-0.45,2.85-0.86c0.99-0.41,1.97-0.96,2.93-1.66
		s1.83-1.58,2.61-2.66c0.78-1.08,1.4-2.36,1.89-3.83s0.72-3.2,0.72-5.17c0-1.54-0.26-3.07-0.78-4.57c-0.52-1.5-1.36-2.85-2.51-4.03
		c-1.15-1.18-2.62-2.14-4.41-2.87c-1.79-0.73-3.95-1.1-6.46-1.1c-3.29,0-6.11,0.51-8.46,1.52c-2.35,1.01-4.27,2.37-5.76,4.07
		S8,190.97,7.3,193.22c-0.7,2.25-1.04,4.63-1.04,7.13c0,1.81,0.15,3.33,0.46,4.57c0.31,1.24,0.65,2.25,1.02,3.03
		c0.37,0.79,0.72,1.36,1.04,1.74s0.51,0.59,0.56,0.64c0.45-0.13,0.78-0.08,0.96,0.16c0.19,0.24,0.28,0.56,0.28,0.96
		c0,0.37-0.13,0.93-0.38,1.68c-0.25,0.74-0.6,1.44-1.02,2.1c-0.43,0.65-0.92,1.15-1.48,1.48c-0.56,0.33-1.14,0.27-1.72-0.18
		c-0.32-0.29-0.82-0.82-1.48-1.6c-0.67-0.77-1.33-1.8-1.99-3.09c-0.66-1.29-1.24-2.85-1.75-4.67C0.25,205.33,0,203.22,0,200.82
		c0-3.83,0.6-7.3,1.81-10.4c1.2-3.1,2.89-5.75,5.07-7.96c2.18-2.21,4.78-3.91,7.8-5.11c3.02-1.2,6.36-1.8,10.03-1.8
		c3.1,0,5.92,0.42,8.44,1.26c2.53,0.84,4.69,2.06,6.48,3.65c1.79,1.6,3.18,3.55,4.15,5.85c0.98,2.3,1.46,4.9,1.46,7.81
		c0,2.24-0.27,4.26-0.8,6.07c-0.54,1.81-1.28,3.43-2.23,4.87c-0.95,1.44-2.07,2.71-3.37,3.81c-1.3,1.11-2.69,2.06-4.19,2.85
		c1.2,0.35,2.33,0.86,3.37,1.54s1.95,1.54,2.73,2.58c0.78,1.04,1.39,2.26,1.85,3.65c0.45,1.4,0.68,2.97,0.68,4.73
		c0,2.05-0.37,3.94-1.1,5.67c-0.74,1.73-1.75,3.22-3.03,4.47c-1.28,1.25-2.8,2.23-4.55,2.93c-1.75,0.7-3.64,1.06-5.68,1.06
		c-2.7,0-4.95-0.41-6.74-1.22c-1.79-0.81-3.22-1.96-4.29-3.43c-1.07-1.48-1.83-3.25-2.27-5.31c-0.44-2.06-0.66-4.36-0.66-6.89
		V191.84z"/>
	<path class="st4" d="M57.93,228.69c1.12,0,2.07,0.38,2.85,1.14c0.78,0.76,1.16,1.7,1.16,2.82c0,0.51-0.11,0.99-0.32,1.46
		c-0.21,0.47-0.5,0.87-0.86,1.22c-0.36,0.35-0.78,0.63-1.26,0.84c-0.48,0.21-1,0.32-1.56,0.32c-0.54,0-1.04-0.11-1.5-0.32
		c-0.47-0.21-0.88-0.49-1.24-0.84c-0.36-0.35-0.65-0.75-0.86-1.22c-0.21-0.47-0.32-0.95-0.32-1.46c0-0.56,0.11-1.08,0.32-1.56
		c0.21-0.48,0.5-0.9,0.86-1.26c0.36-0.36,0.78-0.64,1.24-0.84C56.89,228.79,57.39,228.69,57.93,228.69z"/>
	<path class="st4" d="M112.04,233.12c0.32,0.21,0.39,0.53,0.2,0.96c-0.19,0.43-0.54,0.86-1.04,1.3c-0.51,0.44-1.11,0.82-1.81,1.14
		c-0.7,0.32-1.39,0.47-2.09,0.44c-0.67-0.03-1.32-0.23-1.97-0.6c-0.64-0.37-1.21-0.95-1.7-1.74c-0.5-0.78-0.9-1.76-1.2-2.93
		c-0.31-1.17-0.46-2.57-0.46-4.19v-37.85c0-1.54-0.15-2.74-0.46-3.59c-0.31-0.85-0.67-1.47-1.08-1.86
		c-0.41-0.39-0.84-0.61-1.28-0.68c-0.44-0.07-0.8-0.1-1.06-0.1c-0.29,0-0.67,0.04-1.12,0.12c-0.45,0.08-0.89,0.34-1.3,0.78
		c-0.41,0.44-0.77,1.13-1.06,2.08c-0.29,0.95-0.44,2.3-0.44,4.05v44.16c0.08,0,0.17,0.05,0.26,0.14c0.09,0.09,0.14,0.18,0.14,0.26
		c0,0.21-0.15,0.43-0.46,0.66c-0.31,0.23-0.69,0.44-1.14,0.64c-0.45,0.2-0.97,0.36-1.54,0.48c-0.58,0.12-1.12,0.18-1.62,0.18
		c-0.54,0-1.01-0.07-1.42-0.2c-0.41-0.13-0.62-0.59-0.62-1.36v-45.75c0-1.54-0.14-2.74-0.42-3.59c-0.28-0.85-0.62-1.47-1.02-1.86
		c-0.4-0.39-0.82-0.61-1.26-0.68c-0.44-0.07-0.82-0.1-1.14-0.1c-0.27,0-0.62,0.03-1.06,0.1c-0.44,0.07-0.88,0.29-1.3,0.68
		c-0.43,0.39-0.8,1-1.1,1.86c-0.31,0.85-0.46,2.05-0.46,3.59v36.21c0,3.62-0.6,6.37-1.81,8.26c-1.2,1.89-2.96,2.83-5.26,2.83
		c-0.78,0-1.41-0.13-1.91-0.4c-0.5-0.27-0.89-0.6-1.18-1c-0.29-0.4-0.5-0.83-0.62-1.28c-0.12-0.45-0.18-0.86-0.18-1.24
		c0-0.19,0.06-0.31,0.18-0.36c0.12-0.05,0.29-0.08,0.5-0.08c0.21,0,0.45-0.01,0.72-0.02c0.27-0.01,0.55-0.07,0.84-0.18
		c0.27-0.11,0.54-0.32,0.82-0.64c0.28-0.32,0.53-0.78,0.74-1.4c0.21-0.61,0.39-1.38,0.52-2.32c0.13-0.93,0.2-2.08,0.2-3.43v-34.17
		c0-2.4,0.3-4.42,0.9-6.07s1.38-2.99,2.35-4.03c0.96-1.04,2.05-1.78,3.27-2.24c1.22-0.45,2.44-0.68,3.67-0.68
		c0.35,0,0.82,0.03,1.4,0.1c0.59,0.07,1.24,0.22,1.95,0.46c0.71,0.24,1.42,0.58,2.15,1.02c0.72,0.44,1.4,1.03,2.05,1.78
		c0.51-0.74,1.07-1.34,1.68-1.78c0.61-0.44,1.22-0.78,1.83-1.02c0.6-0.24,1.18-0.39,1.72-0.46c0.55-0.07,1.02-0.1,1.42-0.1
		c1.28,0,2.55,0.23,3.79,0.68c1.24,0.45,2.35,1.2,3.33,2.24c0.98,1.04,1.77,2.38,2.39,4.03c0.61,1.65,0.92,3.67,0.92,6.07v36.37
		c0,0.85,0.1,1.62,0.3,2.3s0.47,1.28,0.8,1.8c0.33,0.52,0.73,0.96,1.18,1.32C111.09,232.58,111.56,232.88,112.04,233.12z"/>
	<path class="st4" d="M125.12,228.69c1.12,0,2.07,0.38,2.85,1.14c0.78,0.76,1.16,1.7,1.16,2.82c0,0.51-0.11,0.99-0.32,1.46
		c-0.21,0.47-0.5,0.87-0.86,1.22c-0.36,0.35-0.78,0.63-1.26,0.84c-0.48,0.21-1,0.32-1.56,0.32c-0.54,0-1.04-0.11-1.5-0.32
		c-0.47-0.21-0.88-0.49-1.24-0.84c-0.36-0.35-0.65-0.75-0.86-1.22c-0.21-0.47-0.32-0.95-0.32-1.46c0-0.56,0.11-1.08,0.32-1.56
		c0.21-0.48,0.5-0.9,0.86-1.26c0.36-0.36,0.78-0.64,1.24-0.84C124.08,228.79,124.59,228.69,125.12,228.69z"/>
	<path class="st4" d="M157.09,183.82c-1.85,0.24-3.59,0.76-5.23,1.56c-1.64,0.8-3.08,1.89-4.29,3.27c-1.22,1.38-2.18,3.06-2.89,5.03
		c-0.71,1.97-1.06,4.25-1.06,6.83c0,1.65,0.17,3.13,0.52,4.45c0.35,1.32,0.76,2.44,1.24,3.35c0.48,0.92,0.96,1.63,1.44,2.14
		c0.48,0.51,0.86,0.76,1.12,0.76c0.21,0,0.37-0.09,0.46-0.28c0.09-0.19,0.25-0.28,0.46-0.28s0.36,0.13,0.44,0.4
		c0.08,0.27,0.12,0.55,0.12,0.84c0,0.69-0.11,1.36-0.34,2.02c-0.23,0.65-0.53,1.22-0.9,1.72c-0.37,0.49-0.8,0.89-1.28,1.2
		c-0.48,0.31-0.98,0.46-1.48,0.46c-0.56,0-1.03-0.17-1.4-0.52c-0.51-0.32-1.16-0.9-1.95-1.74c-0.79-0.84-1.55-1.93-2.29-3.27
		c-0.74-1.34-1.36-2.95-1.89-4.83c-0.52-1.88-0.78-4.01-0.78-6.41c0-2.87,0.35-5.45,1.04-7.73c0.7-2.28,1.63-4.26,2.79-5.97
		s2.52-3.15,4.07-4.35c1.55-1.2,3.18-2.17,4.89-2.91s3.45-1.28,5.22-1.62c1.77-0.33,3.45-0.5,5.05-0.5c0.43,0,0.84,0.09,1.24,0.26
		c0.4,0.17,0.75,0.41,1.04,0.72c0.29,0.31,0.54,0.67,0.72,1.1c0.19,0.43,0.28,0.88,0.28,1.36v54.22v2.48
		c0.78-0.13,1.53-0.23,2.27-0.28c0.73-0.05,1.44-0.11,2.11-0.16c0.96-0.05,1.59,0.25,1.87,0.9s0.32,1.39,0.12,2.22
		c-0.2,0.82-0.58,1.58-1.14,2.28c-0.56,0.69-1.2,1.05-1.93,1.08c-0.62,0-1.2,0.01-1.74,0.04c-0.55,0.03-1.09,0.07-1.63,0.12
		c-0.13,2.37-0.39,4.73-0.76,7.09s-1,4.49-1.89,6.39c-0.88,1.9-2.08,3.45-3.59,4.63c-1.51,1.18-3.46,1.78-5.84,1.78
		c-1.39,0-2.65-0.25-3.79-0.74c-1.14-0.49-2.11-1.17-2.91-2.04s-1.42-1.88-1.85-3.05c-0.43-1.17-0.64-2.45-0.64-3.83
		c0-2.08,0.42-3.91,1.26-5.51c0.84-1.6,1.97-3.01,3.37-4.23c1.4-1.22,3-2.26,4.79-3.09c1.79-0.84,3.64-1.54,5.54-2.1v-0.92V183.82z
		 M151.48,257.31c0.91,0,1.68-0.33,2.33-1c0.64-0.67,1.18-1.56,1.6-2.7s0.76-2.44,0.98-3.91c0.23-1.48,0.39-3.03,0.5-4.65
		c-2.73,0.82-4.8,1.98-6.22,3.45s-2.13,3.24-2.13,5.29c0,1.25,0.28,2.15,0.84,2.69C149.95,257.04,150.65,257.31,151.48,257.31z"/>
	<path class="st4" d="M180.24,228.69c1.12,0,2.07,0.38,2.85,1.14c0.78,0.76,1.16,1.7,1.16,2.82c0,0.51-0.11,0.99-0.32,1.46
		c-0.21,0.47-0.5,0.87-0.86,1.22c-0.36,0.35-0.78,0.63-1.26,0.84c-0.48,0.21-1,0.32-1.56,0.32c-0.54,0-1.04-0.11-1.5-0.32
		c-0.47-0.21-0.88-0.49-1.24-0.84c-0.36-0.35-0.65-0.75-0.86-1.22c-0.21-0.47-0.32-0.95-0.32-1.46c0-0.56,0.11-1.08,0.32-1.56
		s0.5-0.9,0.86-1.26c0.36-0.36,0.77-0.64,1.24-0.84C179.2,228.79,179.71,228.69,180.24,228.69z"/>
</g>
<g>
	<path class="st5" d="M5.62,247.5l0.03-0.26c0.09,0,0.17,0,0.25,0.01c0.08,0.01,0.23,0.01,0.43,0.02c0.24,0.02,0.46,0.03,0.66,0.05
		c0.2,0.01,0.41,0.02,0.63,0.02c0.09,0,0.17-0.01,0.25-0.01c0.08,0,0.19,0,0.34,0c0.15,0.4,0.29,0.74,0.41,1.02
		c0.12,0.28,0.36,0.76,0.72,1.45c0.36,0.69,0.71,1.35,1.05,1.98c0.34,0.63,0.76,1.41,1.27,2.36c0.21-0.34,0.54-0.96,1.01-1.85
		c0.09-0.16,0.41-0.76,0.95-1.79c0.55-1.03,0.94-1.75,1.16-2.17c0.22-0.42,0.39-0.76,0.51-1.01c0.36,0.01,0.74,0.01,1.16,0.01
		c0.35,0,0.62,0,0.83-0.01l-0.01,0.25c-0.35,0.04-0.6,0.09-0.75,0.14c-0.15,0.05-0.26,0.15-0.34,0.28
		c-0.08,0.13-0.13,0.32-0.15,0.57c-0.02,0.25-0.03,0.69-0.02,1.32l0.04,1.89c0,0.11,0.01,0.22,0.01,0.32c0,0.11,0.01,0.24,0.01,0.4
		c0.01,0.16,0.01,0.36,0.02,0.61c0.01,0.25,0.02,0.56,0.03,0.92c0.02,0.43,0.05,0.75,0.08,0.96c0.03,0.21,0.09,0.38,0.17,0.5
		c0.09,0.12,0.2,0.2,0.34,0.24c0.14,0.04,0.35,0.06,0.63,0.07v0.25l-1.18-0.01l-0.91,0.01c-0.5,0-0.94,0.02-1.3,0.07l-0.01-0.26
		c0.38-0.09,0.66-0.19,0.82-0.3c0.16-0.11,0.28-0.3,0.36-0.57c0.07-0.27,0.11-0.67,0.11-1.22c0-0.34,0-0.62-0.01-0.84l-0.05-1.84
		c-0.03-0.79-0.09-1.52-0.18-2.18c-0.14,0.26-0.35,0.66-0.63,1.19s-0.55,1.02-0.79,1.47c-0.24,0.45-0.47,0.89-0.69,1.32
		c-0.22,0.43-0.41,0.79-0.55,1.09c-0.29,0.64-0.48,1.07-0.58,1.29c-0.09,0.22-0.19,0.48-0.28,0.76l-0.21,0.01
		c-0.11-0.36-0.25-0.75-0.41-1.18c-0.16-0.43-0.39-0.92-0.68-1.47c-0.59-1.12-1.38-2.62-2.37-4.51c-0.08,0.77-0.15,1.67-0.23,2.71
		s-0.11,2.12-0.11,3.27c0,0.35,0.07,0.6,0.22,0.74s0.5,0.24,1.04,0.3l-0.01,0.22c-0.3-0.04-0.63-0.05-0.97-0.05l-0.83,0.01
		c-0.1,0-0.18,0-0.26,0c-0.08,0-0.2,0-0.35,0.01c-0.15,0-0.3,0.01-0.45,0.02c-0.15,0.01-0.25,0.01-0.32,0.01l0.01-0.2
		c0.44-0.08,0.75-0.19,0.93-0.34c0.18-0.15,0.3-0.36,0.36-0.64c0.05-0.28,0.11-0.78,0.16-1.49l0.21-3.56
		c0.02-0.33,0.03-0.55,0.03-0.66c0-0.46-0.06-0.82-0.18-1.06c-0.12-0.24-0.29-0.41-0.52-0.49C6.32,247.59,6.01,247.53,5.62,247.5z"
		/>
	<path class="st5" d="M23.52,256.12v-0.22c0.21-0.04,0.38-0.08,0.5-0.14c0.13-0.06,0.19-0.16,0.19-0.3c0-0.13-0.04-0.32-0.12-0.57
		c-0.08-0.25-0.14-0.42-0.18-0.52l-0.51-1.37c-0.27-0.04-0.7-0.05-1.3-0.05h-0.54c-0.54-0.02-1.02,0.01-1.43,0.08l-0.5,1.26
		c-0.22,0.53-0.33,0.86-0.33,0.99c0,0.16,0.07,0.29,0.22,0.4c0.14,0.11,0.44,0.19,0.88,0.26v0.22c-0.53-0.06-0.99-0.1-1.36-0.1
		c-0.38,0-0.8,0.02-1.25,0.05v-0.2c0.27-0.07,0.48-0.18,0.63-0.32c0.11-0.1,0.25-0.32,0.43-0.68c0.18-0.36,0.36-0.75,0.55-1.17
		c0.18-0.42,0.32-0.75,0.4-0.98l1.1-2.61c0.14-0.31,0.28-0.64,0.42-0.99c0.14-0.34,0.28-0.69,0.41-1.03s0.22-0.62,0.28-0.83
		c0-0.06,0.01-0.1,0.04-0.13l0.23-0.01c0.14,0.5,0.3,0.99,0.47,1.45l1.44,3.84c0.37,0.96,0.65,1.67,0.84,2.12
		c0.19,0.46,0.35,0.78,0.5,0.98c0.12,0.17,0.36,0.27,0.73,0.31v0.24c-0.37-0.04-0.74-0.05-1.08-0.05c-0.27,0-0.53,0.01-0.76,0.02
		c-0.24,0.01-0.42,0.03-0.56,0.04C23.69,256.1,23.58,256.11,23.52,256.12z M21.35,249.98l-0.77,1.98c-0.1,0.28-0.18,0.46-0.21,0.53
		c0.35,0.05,0.75,0.08,1.2,0.08l0.63-0.01c0.38,0,0.72-0.01,1.02-0.03c-0.16-0.46-0.26-0.74-0.31-0.82l-0.49-1.25
		c-0.05-0.14-0.16-0.38-0.31-0.74c-0.15-0.36-0.26-0.6-0.33-0.74c-0.09,0.19-0.16,0.36-0.22,0.52
		C21.48,249.65,21.42,249.81,21.35,249.98z"/>
	<path class="st5" d="M30.8,253.05l-0.79-1.12c-0.6,0-1.1-0.03-1.5-0.09l-0.01,1.64c0,0.35,0.01,0.73,0.03,1.16
		c0.02,0.43,0.07,0.73,0.14,0.91c0.04,0.11,0.1,0.19,0.19,0.23c0.09,0.05,0.29,0.11,0.6,0.19c0.1,0.02,0.15,0.06,0.15,0.11
		c0,0.1-0.03,0.15-0.1,0.15c-0.07,0-0.26-0.02-0.58-0.07c-0.39-0.04-0.63-0.05-0.72-0.05c-0.44,0-0.9,0.03-1.37,0.1
		c-0.03,0-0.07,0-0.12,0.01c-0.09,0-0.14-0.04-0.14-0.12c0-0.05,0.02-0.08,0.05-0.1c0.03-0.02,0.11-0.05,0.23-0.08
		c0.21-0.05,0.35-0.14,0.45-0.25c0.09-0.11,0.16-0.33,0.2-0.65c0.04-0.33,0.06-0.85,0.07-1.56v-3.01c0.01-0.74,0.01-1.28-0.01-1.62
		c-0.02-0.35-0.05-0.6-0.11-0.76c-0.06-0.16-0.15-0.27-0.27-0.32c-0.12-0.05-0.32-0.1-0.58-0.13l0.03-0.22
		c0.24,0.01,0.55,0.01,0.92,0.01c0.11,0,0.51-0.03,1.2-0.09c0.69-0.06,1.12-0.08,1.3-0.08c0.48,0,0.91,0.07,1.29,0.2
		c0.38,0.13,0.7,0.31,0.96,0.52c0.26,0.22,0.45,0.47,0.59,0.75c0.13,0.28,0.2,0.57,0.2,0.86c0,0.3-0.07,0.6-0.21,0.89
		c-0.14,0.29-0.34,0.55-0.62,0.78c-0.28,0.23-0.64,0.43-1.08,0.6l0.31,0.46c0.43,0.65,0.79,1.17,1.07,1.56
		c0.28,0.4,0.59,0.78,0.91,1.15c0.33,0.37,0.66,0.67,1,0.9c0.34,0.23,0.67,0.36,0.99,0.38c0.09,0.01,0.13,0.06,0.13,0.14
		c0,0.04-0.02,0.07-0.06,0.09c-0.04,0.02-0.14,0.03-0.29,0.03c-0.44,0-0.87-0.1-1.28-0.29c-0.41-0.19-0.8-0.45-1.17-0.78
		c-0.37-0.33-0.7-0.67-0.99-1.03C31.53,254.06,31.19,253.6,30.8,253.05z M28.55,251.45c0.31,0.07,0.68,0.11,1.11,0.11
		c0.22,0,0.45-0.02,0.7-0.05c0.24-0.03,0.5-0.1,0.75-0.21c0.26-0.11,0.48-0.29,0.67-0.55c0.19-0.26,0.28-0.6,0.28-1.04
		c0-0.31-0.08-0.63-0.24-0.97c-0.16-0.34-0.41-0.63-0.75-0.87c-0.34-0.24-0.75-0.36-1.23-0.36c-0.2,0-0.43,0.03-0.68,0.08
		c-0.25,0.05-0.4,0.14-0.44,0.25C28.6,248.05,28.55,249.26,28.55,251.45z"/>
	<path class="st5" d="M42.63,254.72c-0.02,0.06-0.12,0.4-0.29,1.01c-0.49,0.15-0.94,0.26-1.34,0.34c-0.4,0.08-0.84,0.12-1.31,0.12
		c-0.57,0-1.13-0.1-1.7-0.3s-1.08-0.5-1.53-0.89c-0.45-0.39-0.81-0.87-1.08-1.44c-0.26-0.57-0.4-1.21-0.4-1.93
		c0-0.99,0.25-1.83,0.74-2.51c0.49-0.68,1.12-1.18,1.88-1.51c0.76-0.32,1.54-0.48,2.35-0.48c0.63,0,1.25,0.11,1.84,0.33
		c0.27,0.09,0.48,0.13,0.62,0.13c0.06-0.01,0.11-0.02,0.14-0.03s0.07-0.01,0.11-0.01c0.03,0,0.06,0.02,0.09,0.05l-0.1,0.39
		c-0.1,0.34-0.18,0.78-0.25,1.3c-0.08-0.01-0.14-0.04-0.16-0.08c-0.03-0.04-0.04-0.11-0.04-0.21c-0.01-0.29-0.05-0.48-0.12-0.59
		c-0.12-0.2-0.43-0.4-0.92-0.61s-0.99-0.31-1.49-0.31c-0.66,0-1.25,0.16-1.78,0.49c-0.53,0.33-0.95,0.8-1.26,1.43
		c-0.31,0.63-0.46,1.36-0.46,2.21c0,0.78,0.14,1.45,0.41,2.01c0.27,0.56,0.61,1.01,1.02,1.33s0.82,0.56,1.25,0.71
		c0.42,0.15,0.79,0.22,1.1,0.22c0.49,0,0.9-0.08,1.23-0.24c0.32-0.16,0.58-0.35,0.76-0.58c0.18-0.23,0.36-0.49,0.54-0.81
		c0.07-0.13,0.13-0.2,0.18-0.2c0.09,0,0.13,0.04,0.13,0.12C42.76,254.23,42.72,254.41,42.63,254.72z"/>
	<path class="st5" d="M43.46,256.17l-0.1-0.26c0.48-0.05,0.78-0.15,0.88-0.29c0.08-0.11,0.14-0.61,0.18-1.51
		c0.05-0.9,0.07-1.67,0.07-2.33l0.01-2.25c0-0.61-0.02-1.05-0.07-1.32c-0.04-0.27-0.13-0.45-0.27-0.53s-0.35-0.14-0.65-0.15
		l0.01-0.22c0.26-0.05,0.5-0.07,0.69-0.07c0.06,0,0.3,0.01,0.71,0.03c0.31,0.03,0.55,0.04,0.73,0.04l0.99-0.01
		c0,0.08,0,0.16,0.01,0.24l-0.36,0.05c-0.23,0.03-0.38,0.07-0.47,0.12c-0.08,0.05-0.14,0.14-0.18,0.28
		c-0.04,0.14-0.08,0.42-0.13,0.85c-0.05,0.41-0.07,0.89-0.07,1.45c0,0.46,0,0.83,0.01,1.09h3.24c1.24,0,2,0,2.29-0.01
		s0.5-0.02,0.64-0.05l0.01-1.44c0-0.78-0.01-1.27-0.02-1.47c-0.02-0.2-0.05-0.35-0.1-0.46c-0.05-0.15-0.13-0.24-0.25-0.3
		c-0.11-0.05-0.36-0.12-0.73-0.19l0.03-0.26c0.21,0.03,0.42,0.05,0.63,0.07c0.27,0.03,0.57,0.04,0.9,0.04
		c0.08,0,0.32-0.01,0.71-0.03c0.41-0.02,0.64-0.03,0.69-0.03l0.03,0.19c-0.06,0.02-0.11,0.03-0.13,0.04
		c-0.19,0.05-0.33,0.1-0.42,0.18c-0.1,0.07-0.17,0.19-0.21,0.34c-0.04,0.16-0.07,0.33-0.09,0.53s-0.03,0.69-0.05,1.46l-0.06,3.14
		c-0.02,0.86-0.01,1.48,0.03,1.86s0.13,0.62,0.26,0.74c0.13,0.11,0.36,0.19,0.68,0.22l-0.01,0.2c-0.18-0.04-0.4-0.07-0.66-0.08
		c-0.15-0.01-0.34-0.01-0.58-0.01c-0.08,0-0.36,0.01-0.82,0.03c-0.37,0.03-0.66,0.04-0.86,0.04l-0.03-0.24
		c0.31-0.04,0.53-0.1,0.66-0.18c0.13-0.09,0.21-0.22,0.25-0.42s0.07-0.52,0.08-0.99l0.04-1.55l-0.01-0.89l-0.76-0.03l-3.91-0.03
		l-1.49,0.01c-0.03,0.53-0.04,1.32-0.04,2.38c0,0.66,0.03,1.07,0.08,1.23c0.02,0.09,0.06,0.16,0.12,0.22
		c0.06,0.06,0.15,0.11,0.28,0.16c0.13,0.05,0.34,0.1,0.61,0.15l-0.01,0.22c-0.1,0-0.26-0.02-0.5-0.03c-0.24-0.02-0.47-0.03-0.7-0.04
		c-0.22-0.01-0.42-0.02-0.6-0.02C44.45,256.1,44.02,256.13,43.46,256.17z"/>
	<path class="st5" d="M59.88,256.12v-0.22c0.21-0.04,0.38-0.08,0.5-0.14c0.13-0.06,0.19-0.16,0.19-0.3c0-0.13-0.04-0.32-0.12-0.57
		c-0.08-0.25-0.14-0.42-0.18-0.52l-0.51-1.37c-0.27-0.04-0.7-0.05-1.3-0.05h-0.54c-0.54-0.02-1.02,0.01-1.43,0.08l-0.5,1.26
		c-0.22,0.53-0.33,0.86-0.33,0.99c0,0.16,0.07,0.29,0.22,0.4c0.14,0.11,0.44,0.19,0.88,0.26v0.22c-0.53-0.06-0.99-0.1-1.36-0.1
		c-0.38,0-0.8,0.02-1.25,0.05v-0.2c0.27-0.07,0.48-0.18,0.63-0.32c0.11-0.1,0.25-0.32,0.43-0.68c0.18-0.36,0.36-0.75,0.55-1.17
		c0.18-0.42,0.32-0.75,0.4-0.98l1.1-2.61c0.14-0.31,0.28-0.64,0.42-0.99c0.14-0.34,0.28-0.69,0.41-1.03
		c0.13-0.35,0.22-0.62,0.28-0.83c0-0.06,0.01-0.1,0.04-0.13l0.23-0.01c0.14,0.5,0.3,0.99,0.47,1.45l1.44,3.84
		c0.37,0.96,0.65,1.67,0.84,2.12c0.19,0.46,0.35,0.78,0.5,0.98c0.12,0.17,0.36,0.27,0.73,0.31v0.24c-0.37-0.04-0.74-0.05-1.08-0.05
		c-0.27,0-0.53,0.01-0.76,0.02c-0.24,0.01-0.42,0.03-0.56,0.04C60.06,256.1,59.95,256.11,59.88,256.12z M57.72,249.98l-0.77,1.98
		c-0.1,0.28-0.18,0.46-0.21,0.53c0.35,0.05,0.75,0.08,1.2,0.08l0.63-0.01c0.38,0,0.72-0.01,1.02-0.03
		c-0.16-0.46-0.26-0.74-0.31-0.82l-0.49-1.25c-0.05-0.14-0.16-0.38-0.31-0.74c-0.15-0.36-0.26-0.6-0.33-0.74
		c-0.09,0.19-0.16,0.36-0.22,0.52C57.85,249.65,57.79,249.81,57.72,249.98z"/>
	<path class="st5" d="M62.96,247.53v-0.28c0.41,0.03,0.67,0.04,0.79,0.05c0.11,0.01,0.25,0.01,0.4,0l0.59-0.01
		c0.27,0.35,0.6,0.71,0.97,1.1c0.37,0.39,0.78,0.8,1.24,1.24c0.46,0.44,0.72,0.69,0.78,0.75l4.04,3.82
		c0.04-0.57,0.05-1.43,0.05-2.58v-1.32c0-0.7-0.02-1.23-0.05-1.58c-0.03-0.35-0.1-0.62-0.2-0.78s-0.22-0.28-0.38-0.34
		c-0.16-0.06-0.42-0.11-0.78-0.17l0.08-0.19c0.06-0.01,0.18-0.01,0.34-0.01c0.14,0,0.28,0,0.42,0.01c0.14,0,0.31,0.02,0.5,0.03
		c0.11,0.01,0.23,0.01,0.36,0.01s0.22,0,0.3,0l0.87-0.01l0.01,0.23c-0.27,0.04-0.47,0.1-0.59,0.19c-0.12,0.09-0.2,0.23-0.25,0.43
		c-0.08,0.37-0.14,1.1-0.17,2.19c-0.03,1.09-0.05,2.12-0.05,3.1c0,0.39,0,0.76,0.01,1.11c0.01,0.35,0.01,0.67,0.02,0.95
		c0.01,0.28,0.02,0.54,0.04,0.78l-0.28-0.01c-0.32-0.68-1.26-1.75-2.85-3.22l-2.57-2.39c-0.09-0.06-0.3-0.25-0.63-0.57
		s-0.76-0.71-1.27-1.18l-0.09,4.17c-0.02,0.86,0,1.46,0.05,1.8c0.06,0.34,0.19,0.57,0.39,0.68c0.2,0.11,0.58,0.22,1.14,0.33
		c0,0.1-0.01,0.18-0.03,0.26c-0.07,0-0.29-0.01-0.66-0.03c-0.37-0.02-0.6-0.03-0.68-0.03c-0.07,0-0.32,0.01-0.75,0.03
		c-0.07,0-0.17,0.01-0.29,0.02s-0.28,0.02-0.48,0.03c-0.06,0-0.11-0.01-0.14-0.04c-0.03-0.03-0.04-0.07-0.04-0.13
		c0-0.07,0.01-0.11,0.03-0.12c0.02-0.01,0.07-0.03,0.15-0.03c0.2-0.02,0.35-0.06,0.43-0.11c0.09-0.05,0.16-0.15,0.22-0.29
		c0.05-0.14,0.09-0.37,0.12-0.67c0.02-0.31,0.04-0.7,0.05-1.18l0.05-3.25c0.01-0.71,0-1.24-0.04-1.59
		c-0.04-0.35-0.14-0.63-0.31-0.84C63.65,247.71,63.37,247.58,62.96,247.53z"/>
	<path class="st5" d="M73.9,247.65l-0.01-0.26c1.22,0,2.25-0.05,3.09-0.15c0.31-0.04,0.63-0.06,0.97-0.06c0.68,0,1.33,0.1,1.95,0.3
		c0.62,0.2,1.17,0.49,1.66,0.88c0.48,0.38,0.86,0.85,1.14,1.39c0.28,0.55,0.41,1.16,0.41,1.84c0,0.83-0.21,1.58-0.64,2.26
		c-0.43,0.68-1.04,1.22-1.83,1.61c-0.79,0.39-1.7,0.59-2.71,0.59c-0.06,0-0.24,0-0.54-0.01c-0.3-0.01-0.48-0.01-0.53-0.01
		c-0.18,0-0.34,0-0.48,0c-0.14,0-0.34,0-0.61,0.01c-0.27,0-0.52,0.01-0.77,0.02c-0.24,0.01-0.41,0.01-0.5,0.01l-0.67-0.01v-0.26
		c0.49,0,0.78-0.11,0.88-0.32c0.11-0.25,0.17-1.38,0.17-3.39c0-1.33-0.02-2.33-0.05-2.98s-0.1-1.06-0.19-1.22
		C74.53,247.72,74.28,247.64,73.9,247.65z M81.91,251.61c0-0.86-0.21-1.61-0.62-2.22c-0.41-0.62-0.94-1.09-1.58-1.41
		c-0.64-0.32-1.29-0.48-1.97-0.48c-0.66,0-1.25,0.12-1.78,0.35c-0.05,0.25-0.08,1.01-0.1,2.28c-0.02,1.26-0.03,2.35-0.03,3.26
		c0,0.04,0,0.21,0.01,0.51c0.01,0.3,0.01,0.61,0.02,0.92c0.01,0.31,0.01,0.49,0.01,0.54c0.46,0.15,0.82,0.25,1.06,0.3
		c0.25,0.06,0.56,0.08,0.93,0.08c0.95,0,1.72-0.2,2.33-0.61c0.61-0.41,1.04-0.93,1.31-1.56C81.78,252.96,81.91,252.3,81.91,251.61z"
		/>
	<path class="st5" d="M87.42,247.65l-0.01-0.26c1.22,0,2.25-0.05,3.09-0.15c0.31-0.04,0.63-0.06,0.97-0.06c0.68,0,1.33,0.1,1.95,0.3
		c0.62,0.2,1.17,0.49,1.66,0.88c0.48,0.38,0.86,0.85,1.14,1.39c0.28,0.55,0.41,1.16,0.41,1.84c0,0.83-0.21,1.58-0.64,2.26
		c-0.43,0.68-1.04,1.22-1.83,1.61c-0.79,0.39-1.7,0.59-2.71,0.59c-0.06,0-0.24,0-0.54-0.01c-0.3-0.01-0.48-0.01-0.53-0.01
		c-0.18,0-0.34,0-0.48,0c-0.14,0-0.34,0-0.61,0.01c-0.27,0-0.52,0.01-0.77,0.02c-0.24,0.01-0.41,0.01-0.5,0.01l-0.67-0.01v-0.26
		c0.49,0,0.78-0.11,0.88-0.32c0.11-0.25,0.17-1.38,0.17-3.39c0-1.33-0.02-2.33-0.05-2.98s-0.1-1.06-0.19-1.22
		C88.05,247.72,87.8,247.64,87.42,247.65z M95.44,251.61c0-0.86-0.21-1.61-0.62-2.22c-0.41-0.62-0.94-1.09-1.57-1.41
		c-0.64-0.32-1.29-0.48-1.97-0.48c-0.66,0-1.25,0.12-1.78,0.35c-0.05,0.25-0.08,1.01-0.1,2.28c-0.02,1.26-0.03,2.35-0.03,3.26
		c0,0.04,0,0.21,0.01,0.51c0.01,0.3,0.01,0.61,0.02,0.92c0.01,0.31,0.01,0.49,0.01,0.54c0.46,0.15,0.82,0.25,1.06,0.3
		c0.25,0.06,0.56,0.08,0.93,0.08c0.95,0,1.72-0.2,2.33-0.61c0.61-0.41,1.04-0.93,1.31-1.56C95.3,252.96,95.44,252.3,95.44,251.61z"
		/>
	<path class="st5" d="M104.53,254.09h0.21c-0.07,0.47-0.15,0.86-0.24,1.18c-0.09,0.31-0.2,0.61-0.34,0.89
		c-0.15-0.01-0.36-0.02-0.62-0.03c-0.26-0.01-0.63-0.01-1.1-0.01c-0.28,0-0.59,0-0.91-0.01c-0.32-0.01-0.46-0.01-0.42-0.01
		c-0.3,0-0.64,0-1.04,0.01c-0.4,0.01-0.87,0.02-1.43,0.04s-0.97,0.03-1.23,0.05l0.01-0.23c0.14-0.03,0.29-0.07,0.43-0.11
		c0.15-0.04,0.25-0.08,0.3-0.13c0.05-0.05,0.09-0.1,0.11-0.17c0.02-0.07,0.05-0.18,0.07-0.36c0.03-0.17,0.05-0.48,0.08-0.94
		c0.02-0.45,0.05-0.96,0.06-1.52c0.02-0.56,0.02-0.92,0.02-1.06l-0.05-2.17c-0.01-0.67-0.04-1.13-0.08-1.36
		c-0.04-0.24-0.11-0.39-0.22-0.47c-0.11-0.08-0.32-0.15-0.62-0.2c0-0.07,0-0.13,0.01-0.18h4.39c0.49,0,1.24-0.02,2.23-0.05
		c-0.02,0.39-0.06,0.78-0.12,1.17c-0.06,0.39-0.14,0.59-0.23,0.59c-0.11,0-0.17-0.03-0.17-0.1c0-0.03,0.01-0.11,0.03-0.26
		c0.02-0.15,0.03-0.23,0.03-0.25c0-0.33-0.2-0.54-0.6-0.63c-0.4-0.09-0.88-0.14-1.43-0.14c-0.67,0-1.37,0.05-2.1,0.14
		c-0.08,0.75-0.12,1.39-0.12,1.9c0,0.34,0,0.72,0.01,1.16c0,0.44,0.01,0.64,0.01,0.61c0.11,0.01,0.45,0.01,1.01,0.01
		c0.97,0,1.63-0.02,1.99-0.05c0.21-0.02,0.34-0.05,0.41-0.08c0.07-0.03,0.14-0.11,0.2-0.24c0.06-0.13,0.14-0.33,0.21-0.6l0.2,0.01
		c0,0.47,0,0.89,0,1.27c0,0.37-0.01,0.8-0.01,1.28h-0.24c-0.01-0.42-0.08-0.71-0.19-0.87c-0.11-0.16-0.33-0.27-0.65-0.31
		c-0.32-0.05-0.89-0.07-1.71-0.07c-0.53,0-0.94,0.02-1.23,0.07l-0.03,0.97c-0.03,1.18,0.01,2.09,0.12,2.73
		c0.08,0.02,0.18,0.05,0.29,0.07c0.11,0.03,0.22,0.05,0.32,0.07c0.1,0.02,0.25,0.03,0.44,0.05c0.19,0.02,0.43,0.02,0.72,0.02
		c0.72,0,1.28-0.05,1.69-0.16c0.41-0.1,0.72-0.27,0.94-0.5C104.19,254.86,104.37,254.53,104.53,254.09z"/>
	<path class="st5" d="M107.23,247.47l0.03-0.25l0.55,0.01l1.12,0.04c0.1,0,0.2-0.01,0.29-0.01c0.09,0,0.22,0,0.39,0l0.68,0.01
		l0.01,0.22c-0.4,0.03-0.65,0.05-0.74,0.08c-0.09,0.03-0.14,0.08-0.14,0.17c0,0.12,0.09,0.42,0.28,0.89
		c0.19,0.47,0.42,1.02,0.7,1.63c0.28,0.62,0.48,1.06,0.6,1.33l0.96,2.05l0.19,0.39c0.13,0.26,0.22,0.46,0.28,0.59
		c0.15-0.27,0.34-0.63,0.55-1.06c0.21-0.43,0.42-0.85,0.6-1.26c0.19-0.4,0.29-0.63,0.31-0.67l0.9-1.96c0.13-0.29,0.26-0.6,0.39-0.94
		c0.13-0.34,0.2-0.58,0.2-0.73c0-0.3-0.25-0.47-0.75-0.51l0.04-0.28c0.53,0.05,1.06,0.07,1.62,0.07c0.15,0,0.28-0.01,0.39-0.01
		c0.11,0,0.26,0,0.43,0v0.19c-0.3,0.1-0.53,0.21-0.68,0.32c-0.15,0.12-0.3,0.3-0.45,0.56c-0.15,0.25-0.41,0.75-0.77,1.49l-1.54,3.05
		c-0.29,0.56-0.58,1.18-0.86,1.85c-0.29,0.67-0.45,1.17-0.5,1.5l-0.21,0.03c-0.1-0.3-0.22-0.58-0.35-0.85l-0.47-1.02
		c-0.14-0.36-0.33-0.8-0.58-1.3l-1.15-2.42c-0.85-1.76-1.36-2.73-1.53-2.92c-0.11-0.12-0.22-0.2-0.34-0.23
		C107.59,247.51,107.43,247.48,107.23,247.47z"/>
	<path class="st5" d="M117.46,247.55v-0.29c0.52,0.03,0.84,0.05,0.97,0.05c0.47,0.02,0.78,0.03,0.94,0.03
		c0.05,0,0.29-0.01,0.71-0.03c0.42-0.02,0.82-0.04,1.18-0.05v0.32c-0.4,0-0.68,0.02-0.82,0.07c-0.15,0.04-0.26,0.13-0.33,0.26
		c-0.15,0.29-0.23,1.38-0.23,3.28c0,1.31,0,2.14,0,2.49c0,0.35,0.01,0.72,0.02,1.11c0.01,0.32,0.03,0.54,0.08,0.68
		c0.04,0.13,0.15,0.23,0.34,0.3c0.18,0.07,0.48,0.1,0.88,0.11l-0.03,0.26c-0.06,0-0.19,0-0.38-0.01c-0.19-0.01-0.39-0.01-0.59-0.02
		c-0.2,0-0.36-0.01-0.47-0.01c-0.11,0-0.23,0-0.38,0c-0.2,0-0.37,0-0.5,0c-0.13,0-0.31,0-0.54,0.01c-0.22,0-0.43,0.01-0.61,0.02
		c-0.18,0.01-0.29,0.01-0.33,0.01l-0.01-0.26c0.49-0.03,0.83-0.08,1-0.17c0.17-0.09,0.29-0.22,0.36-0.41
		c0.09-0.25,0.15-0.71,0.18-1.39c0.02-0.68,0.04-1.4,0.04-2.16c0-0.69-0.02-1.67-0.07-2.96c-0.01-0.35-0.05-0.61-0.11-0.76
		c-0.06-0.15-0.19-0.26-0.38-0.34C118.19,247.59,117.88,247.55,117.46,247.55z"/>
	<path class="st5" d="M121.8,247.53v-0.28c0.41,0.03,0.67,0.04,0.79,0.05c0.11,0.01,0.25,0.01,0.4,0l0.59-0.01
		c0.27,0.35,0.6,0.71,0.97,1.1c0.37,0.39,0.78,0.8,1.24,1.24c0.46,0.44,0.72,0.69,0.78,0.75l4.04,3.82
		c0.04-0.57,0.05-1.43,0.05-2.58v-1.32c0-0.7-0.02-1.23-0.05-1.58c-0.03-0.35-0.1-0.62-0.19-0.78s-0.22-0.28-0.38-0.34
		c-0.16-0.06-0.42-0.11-0.78-0.17l0.08-0.19c0.06-0.01,0.18-0.01,0.34-0.01c0.14,0,0.28,0,0.42,0.01s0.31,0.02,0.5,0.03
		c0.11,0.01,0.23,0.01,0.36,0.01c0.12,0,0.22,0,0.3,0l0.87-0.01l0.01,0.23c-0.27,0.04-0.47,0.1-0.59,0.19
		c-0.12,0.09-0.2,0.23-0.25,0.43c-0.08,0.37-0.14,1.1-0.18,2.19c-0.03,1.09-0.05,2.12-0.05,3.1c0,0.39,0,0.76,0.01,1.11
		c0.01,0.35,0.02,0.67,0.02,0.95c0.01,0.28,0.02,0.54,0.04,0.78l-0.28-0.01c-0.32-0.68-1.27-1.75-2.85-3.22l-2.57-2.39
		c-0.09-0.06-0.3-0.25-0.63-0.57c-0.34-0.31-0.76-0.71-1.27-1.18l-0.09,4.17c-0.02,0.86,0,1.46,0.05,1.8
		c0.06,0.34,0.19,0.57,0.39,0.68s0.58,0.22,1.14,0.33c0,0.1-0.01,0.18-0.03,0.26c-0.07,0-0.29-0.01-0.66-0.03
		c-0.37-0.02-0.6-0.03-0.68-0.03c-0.07,0-0.32,0.01-0.75,0.03c-0.07,0-0.17,0.01-0.29,0.02s-0.28,0.02-0.48,0.03
		c-0.06,0-0.11-0.01-0.14-0.04c-0.03-0.03-0.04-0.07-0.04-0.13c0-0.07,0.01-0.11,0.03-0.12c0.02-0.01,0.07-0.03,0.15-0.03
		c0.2-0.02,0.35-0.06,0.43-0.11c0.09-0.05,0.16-0.15,0.22-0.29c0.05-0.14,0.09-0.37,0.12-0.67c0.02-0.31,0.04-0.7,0.05-1.18
		l0.05-3.25c0.01-0.71,0-1.24-0.04-1.59c-0.04-0.35-0.14-0.63-0.31-0.84C122.49,247.71,122.21,247.58,121.8,247.53z"/>
</g>
</svg>
