<?xml version="1.0" encoding="utf-8"?>
<!-- Generator: Adobe Illustrator 24.3.0, SVG Export Plug-In . SVG Version: 6.00 Build 0)  -->
<svg version="1.1" id="Calque_1" xmlns="http://www.w3.org/2000/svg" xmlns:xlink="http://www.w3.org/1999/xlink" x="0px" y="0px"
	 viewBox="0 0 184.25 87.87" style="enable-background:new 0 0 184.25 87.87;" xml:space="preserve">
<style type="text/css">
	.st0{fill:#9B633B;}
	.st1{fill:#020203;}
</style>
<g>
	<path class="st0" d="M14.96,16.93c0-0.77-0.06-1.33-0.18-1.67s-0.18-0.66-0.18-0.96c0-0.4,0.21-0.73,0.64-1
		c0.43-0.27,0.94-0.4,1.52-0.4c1.36,0,2.47,0.35,3.31,1.06c0.84,0.7,1.26,1.56,1.26,2.57v30.23c0,1.97,0.16,3.64,0.48,5.02
		c0.32,1.38,0.8,2.51,1.44,3.39s1.43,1.52,2.37,1.93c0.94,0.41,2.01,0.62,3.21,0.62c1.15,0,2.21-0.21,3.19-0.64
		c0.98-0.42,1.83-1.01,2.55-1.75c0.72-0.74,1.28-1.62,1.68-2.63c0.4-1.01,0.6-2.11,0.6-3.31c0-1.83-0.32-3.36-0.96-4.58
		c-0.64-1.22-1.48-2.2-2.51-2.95c-1.03-0.74-2.19-1.27-3.49-1.57c-1.3-0.31-2.59-0.46-3.87-0.46c-0.24,0-0.48-0.15-0.72-0.46
		c-0.24-0.31-0.44-0.68-0.6-1.13c-0.16-0.45-0.28-0.94-0.36-1.45c-0.08-0.52-0.09-1-0.04-1.45c0.05-0.45,0.18-0.83,0.38-1.14
		c0.2-0.31,0.51-0.46,0.94-0.46c0.64,0,1.42-0.08,2.33-0.24c0.91-0.16,1.86-0.44,2.85-0.86c0.99-0.41,1.97-0.96,2.93-1.65
		c0.96-0.69,1.83-1.57,2.61-2.65c0.78-1.08,1.4-2.35,1.89-3.82s0.72-3.19,0.72-5.16c0-1.54-0.26-3.06-0.78-4.56
		c-0.52-1.5-1.36-2.84-2.51-4.02c-1.15-1.18-2.62-2.14-4.41-2.87c-1.79-0.73-3.95-1.09-6.46-1.09c-3.29,0-6.11,0.5-8.46,1.51
		c-2.35,1.01-4.27,2.36-5.76,4.06S8,16.06,7.3,18.3c-0.7,2.24-1.04,4.61-1.04,7.11c0,1.81,0.15,3.33,0.46,4.56
		c0.31,1.23,0.65,2.24,1.02,3.03c0.37,0.78,0.72,1.36,1.04,1.73s0.51,0.58,0.56,0.64c0.45-0.13,0.78-0.08,0.96,0.16
		c0.19,0.24,0.28,0.56,0.28,0.96c0,0.37-0.13,0.93-0.38,1.67c-0.25,0.74-0.6,1.44-1.02,2.09c-0.43,0.65-0.92,1.14-1.48,1.47
		C7.14,42.06,6.57,42,5.98,41.55c-0.32-0.29-0.82-0.82-1.48-1.59c-0.67-0.77-1.33-1.8-1.99-3.09c-0.66-1.29-1.24-2.84-1.75-4.66
		C0.25,30.39,0,28.28,0,25.89c0-3.82,0.6-7.28,1.81-10.38c1.2-3.09,2.89-5.74,5.07-7.95c2.18-2.2,4.78-3.9,7.8-5.1
		c3.02-1.2,6.36-1.79,10.03-1.79c3.1,0,5.92,0.42,8.44,1.25s4.69,2.05,6.48,3.65c1.79,1.59,3.18,3.54,4.15,5.84
		c0.98,2.3,1.46,4.89,1.46,7.79c0,2.23-0.27,4.25-0.8,6.05c-0.54,1.81-1.28,3.43-2.23,4.86c-0.95,1.43-2.07,2.7-3.37,3.8
		c-1.3,1.1-2.69,2.05-4.19,2.85c1.2,0.34,2.33,0.86,3.37,1.53s1.95,1.53,2.73,2.57c0.78,1.04,1.39,2.25,1.85,3.64
		c0.45,1.39,0.68,2.97,0.68,4.72c0,2.05-0.37,3.93-1.1,5.66c-0.74,1.73-1.75,3.21-3.03,4.46c-1.28,1.25-2.8,2.22-4.55,2.93
		c-1.75,0.7-3.64,1.06-5.68,1.06c-2.7,0-4.95-0.41-6.74-1.22c-1.79-0.81-3.22-1.95-4.29-3.43c-1.07-1.47-1.83-3.24-2.27-5.3
		c-0.44-2.06-0.66-4.35-0.66-6.87V16.93z"/>
	<path class="st0" d="M57.93,53.7c1.12,0,2.07,0.38,2.85,1.13c0.78,0.76,1.16,1.69,1.16,2.81c0,0.5-0.11,0.99-0.32,1.45
		c-0.21,0.47-0.5,0.87-0.86,1.22c-0.36,0.34-0.78,0.62-1.26,0.84c-0.48,0.21-1,0.32-1.56,0.32c-0.54,0-1.04-0.11-1.5-0.32
		c-0.47-0.21-0.88-0.49-1.24-0.84c-0.36-0.35-0.65-0.75-0.86-1.22C54.1,58.63,54,58.14,54,57.64c0-0.56,0.11-1.08,0.32-1.55
		c0.21-0.48,0.5-0.9,0.86-1.26c0.36-0.36,0.78-0.64,1.24-0.84C56.89,53.8,57.39,53.7,57.93,53.7z"/>
	<path class="st0" d="M112.04,58.12c0.32,0.21,0.39,0.53,0.2,0.96c-0.19,0.42-0.54,0.86-1.04,1.29c-0.51,0.44-1.11,0.82-1.81,1.14
		c-0.7,0.32-1.39,0.46-2.09,0.44c-0.67-0.03-1.32-0.23-1.97-0.6c-0.64-0.37-1.21-0.95-1.7-1.73c-0.5-0.78-0.9-1.76-1.2-2.93
		c-0.31-1.17-0.46-2.56-0.46-4.18V14.74c0-1.54-0.15-2.73-0.46-3.59c-0.31-0.85-0.67-1.47-1.08-1.85c-0.41-0.38-0.84-0.61-1.28-0.68
		c-0.44-0.07-0.8-0.1-1.06-0.1c-0.29,0-0.67,0.04-1.12,0.12c-0.45,0.08-0.89,0.34-1.3,0.78c-0.41,0.44-0.77,1.13-1.06,2.07
		c-0.29,0.94-0.44,2.29-0.44,4.04v44.06c0.08,0,0.17,0.05,0.26,0.14c0.09,0.09,0.14,0.18,0.14,0.26c0,0.21-0.15,0.43-0.46,0.66
		c-0.31,0.23-0.69,0.44-1.14,0.64c-0.45,0.2-0.97,0.36-1.54,0.48c-0.58,0.12-1.12,0.18-1.62,0.18c-0.54,0-1.01-0.07-1.42-0.2
		c-0.41-0.13-0.62-0.58-0.62-1.35V14.74c0-1.54-0.14-2.73-0.42-3.59c-0.28-0.85-0.62-1.47-1.02-1.85c-0.4-0.38-0.82-0.61-1.26-0.68
		c-0.44-0.07-0.82-0.1-1.14-0.1c-0.27,0-0.62,0.03-1.06,0.1c-0.44,0.07-0.88,0.29-1.3,0.68c-0.43,0.39-0.8,1-1.1,1.85
		c-0.31,0.85-0.46,2.05-0.46,3.59v36.13c0,3.61-0.6,6.36-1.81,8.25c-1.2,1.88-2.96,2.83-5.26,2.83c-0.78,0-1.41-0.13-1.91-0.4
		c-0.5-0.27-0.89-0.6-1.18-1c-0.29-0.4-0.5-0.82-0.62-1.27C69.06,58.82,69,58.41,69,58.04c0-0.19,0.06-0.31,0.18-0.36
		s0.29-0.08,0.5-0.08c0.21,0,0.45-0.01,0.72-0.02c0.27-0.01,0.55-0.07,0.84-0.18c0.27-0.11,0.54-0.32,0.82-0.64
		c0.28-0.32,0.53-0.78,0.74-1.39c0.21-0.61,0.39-1.38,0.52-2.31c0.13-0.93,0.2-2.07,0.2-3.43v-34.1c0-2.39,0.3-4.41,0.9-6.05
		s1.38-2.99,2.35-4.02c0.96-1.04,2.05-1.78,3.27-2.23c1.22-0.45,2.44-0.68,3.67-0.68c0.35,0,0.82,0.03,1.4,0.1
		c0.59,0.07,1.24,0.22,1.95,0.46c0.71,0.24,1.42,0.58,2.15,1.02c0.72,0.44,1.4,1.03,2.05,1.77c0.51-0.74,1.07-1.33,1.68-1.77
		c0.61-0.44,1.22-0.78,1.83-1.02s1.18-0.39,1.72-0.46c0.55-0.07,1.02-0.1,1.42-0.1c1.28,0,2.55,0.23,3.79,0.68s2.35,1.2,3.33,2.23
		c0.98,1.04,1.77,2.38,2.39,4.02c0.61,1.65,0.92,3.66,0.92,6.05v36.29c0,0.85,0.1,1.61,0.3,2.29c0.2,0.68,0.47,1.27,0.8,1.79
		c0.33,0.52,0.73,0.96,1.18,1.31C111.09,57.58,111.56,57.88,112.04,58.12z"/>
	<path class="st0" d="M125.12,53.7c1.12,0,2.07,0.38,2.85,1.13c0.78,0.76,1.16,1.69,1.16,2.81c0,0.5-0.11,0.99-0.32,1.45
		c-0.21,0.47-0.5,0.87-0.86,1.22c-0.36,0.34-0.78,0.62-1.26,0.84c-0.48,0.21-1,0.32-1.56,0.32c-0.54,0-1.04-0.11-1.5-0.32
		c-0.47-0.21-0.88-0.49-1.24-0.84c-0.36-0.35-0.65-0.75-0.86-1.22c-0.21-0.46-0.32-0.95-0.32-1.45c0-0.56,0.11-1.08,0.32-1.55
		c0.21-0.48,0.5-0.9,0.86-1.26c0.36-0.36,0.78-0.64,1.24-0.84C124.08,53.8,124.59,53.7,125.12,53.7z"/>
	<path class="st0" d="M157.09,8.92c-1.85,0.24-3.59,0.76-5.23,1.55c-1.64,0.8-3.08,1.89-4.29,3.27c-1.22,1.38-2.18,3.05-2.89,5.02
		c-0.71,1.97-1.06,4.24-1.06,6.81c0,1.65,0.17,3.13,0.52,4.44c0.35,1.31,0.76,2.43,1.24,3.35c0.48,0.92,0.96,1.63,1.44,2.13
		c0.48,0.5,0.86,0.76,1.12,0.76c0.21,0,0.37-0.09,0.46-0.28c0.09-0.19,0.25-0.28,0.46-0.28s0.36,0.13,0.44,0.4
		c0.08,0.27,0.12,0.54,0.12,0.84c0,0.69-0.11,1.36-0.34,2.01c-0.23,0.65-0.53,1.22-0.9,1.71c-0.37,0.49-0.8,0.89-1.28,1.2
		c-0.48,0.31-0.98,0.46-1.48,0.46c-0.56,0-1.03-0.17-1.4-0.52c-0.51-0.32-1.16-0.9-1.95-1.73c-0.79-0.84-1.55-1.92-2.29-3.27
		c-0.74-1.34-1.36-2.95-1.89-4.82c-0.52-1.87-0.78-4-0.78-6.39c0-2.87,0.35-5.44,1.04-7.71s1.63-4.26,2.79-5.95s2.52-3.15,4.07-4.34
		c1.55-1.2,3.18-2.16,4.89-2.91s3.45-1.28,5.22-1.61c1.77-0.33,3.45-0.5,5.05-0.5c0.43,0,0.84,0.09,1.24,0.26
		c0.4,0.17,0.75,0.41,1.04,0.72c0.29,0.31,0.54,0.67,0.72,1.1c0.19,0.42,0.28,0.88,0.28,1.35v54.09v2.47
		c0.78-0.13,1.53-0.23,2.27-0.28c0.73-0.05,1.44-0.11,2.11-0.16c0.96-0.05,1.59,0.24,1.87,0.9s0.32,1.39,0.12,2.21
		c-0.2,0.82-0.58,1.58-1.14,2.27c-0.56,0.69-1.2,1.05-1.93,1.08c-0.62,0-1.2,0.01-1.74,0.04c-0.55,0.03-1.09,0.07-1.63,0.12
		c-0.13,2.36-0.39,4.72-0.76,7.07s-1,4.48-1.89,6.37c-0.88,1.9-2.08,3.44-3.59,4.62c-1.51,1.18-3.46,1.77-5.84,1.77
		c-1.39,0-2.65-0.25-3.79-0.74c-1.14-0.49-2.11-1.17-2.91-2.03c-0.8-0.86-1.42-1.88-1.85-3.05c-0.43-1.17-0.64-2.44-0.64-3.82
		c0-2.07,0.42-3.9,1.26-5.5c0.84-1.59,1.97-3,3.37-4.22c1.4-1.22,3-2.25,4.79-3.09c1.79-0.84,3.64-1.53,5.54-2.09V63.1V8.92z
		 M151.48,82.26c0.91,0,1.68-0.33,2.33-1c0.64-0.66,1.18-1.56,1.6-2.69c0.43-1.13,0.76-2.43,0.98-3.9c0.23-1.47,0.39-3.02,0.5-4.64
		c-2.73,0.82-4.8,1.97-6.22,3.45s-2.13,3.23-2.13,5.28c0,1.25,0.28,2.14,0.84,2.69C149.95,81.98,150.65,82.26,151.48,82.26z"/>
	<path class="st0" d="M180.24,53.7c1.12,0,2.07,0.38,2.85,1.13c0.78,0.76,1.16,1.69,1.16,2.81c0,0.5-0.11,0.99-0.32,1.45
		c-0.21,0.47-0.5,0.87-0.86,1.22c-0.36,0.34-0.78,0.62-1.26,0.84c-0.48,0.21-1,0.32-1.56,0.32c-0.54,0-1.04-0.11-1.5-0.32
		c-0.47-0.21-0.88-0.49-1.24-0.84c-0.36-0.35-0.65-0.75-0.86-1.22c-0.21-0.46-0.32-0.95-0.32-1.45c0-0.56,0.11-1.08,0.32-1.55
		c0.21-0.48,0.5-0.9,0.86-1.26c0.36-0.36,0.77-0.64,1.24-0.84C179.2,53.8,179.71,53.7,180.24,53.7z"/>
</g>
<g>
	<path class="st1" d="M5.62,72.47l0.03-0.26c0.09,0,0.17,0,0.25,0.01c0.08,0.01,0.23,0.01,0.43,0.02c0.24,0.02,0.46,0.03,0.66,0.05
		c0.2,0.01,0.41,0.02,0.63,0.02c0.09,0,0.17-0.01,0.25-0.01c0.08,0,0.19,0,0.34,0c0.15,0.4,0.29,0.74,0.41,1.02
		c0.12,0.28,0.36,0.76,0.72,1.45c0.36,0.69,0.71,1.35,1.05,1.97c0.34,0.62,0.76,1.41,1.27,2.35c0.21-0.34,0.54-0.96,1.01-1.85
		c0.09-0.16,0.41-0.76,0.95-1.78c0.55-1.03,0.94-1.75,1.16-2.17s0.39-0.76,0.51-1.01c0.36,0.01,0.74,0.01,1.16,0.01
		c0.35,0,0.62,0,0.83-0.01l-0.01,0.25c-0.35,0.04-0.6,0.09-0.75,0.14c-0.15,0.05-0.26,0.14-0.34,0.28
		c-0.08,0.13-0.13,0.32-0.15,0.57c-0.02,0.25-0.03,0.69-0.02,1.31l0.04,1.89c0,0.11,0.01,0.22,0.01,0.32c0,0.11,0.01,0.24,0.01,0.39
		c0.01,0.16,0.01,0.36,0.02,0.6c0.01,0.25,0.02,0.55,0.03,0.92c0.02,0.43,0.05,0.75,0.08,0.96c0.03,0.21,0.09,0.38,0.17,0.5
		c0.09,0.12,0.2,0.2,0.34,0.24c0.14,0.04,0.35,0.06,0.63,0.07v0.25l-1.18-0.01l-0.91,0.01c-0.5,0-0.94,0.02-1.3,0.07l-0.01-0.26
		c0.38-0.09,0.66-0.19,0.82-0.3c0.16-0.11,0.28-0.29,0.36-0.56c0.07-0.27,0.11-0.67,0.11-1.21c0-0.34,0-0.62-0.01-0.84l-0.05-1.83
		c-0.03-0.79-0.09-1.51-0.18-2.17c-0.14,0.26-0.35,0.66-0.63,1.18c-0.29,0.53-0.55,1.01-0.79,1.46c-0.24,0.45-0.47,0.89-0.69,1.31
		c-0.22,0.43-0.41,0.79-0.55,1.09c-0.29,0.63-0.48,1.06-0.58,1.29s-0.19,0.48-0.28,0.76l-0.21,0.01c-0.11-0.36-0.25-0.75-0.41-1.18
		c-0.16-0.43-0.39-0.92-0.68-1.47c-0.59-1.12-1.38-2.62-2.37-4.5c-0.08,0.77-0.15,1.67-0.23,2.7c-0.07,1.03-0.11,2.12-0.11,3.26
		c0,0.35,0.07,0.6,0.22,0.74s0.5,0.24,1.04,0.3l-0.01,0.22c-0.3-0.04-0.63-0.05-0.97-0.05l-0.83,0.01c-0.1,0-0.18,0-0.26,0
		c-0.08,0-0.2,0-0.35,0.01c-0.15,0-0.3,0.01-0.45,0.02c-0.15,0.01-0.25,0.01-0.32,0.01l0.01-0.2C6,80.79,6.31,80.68,6.5,80.53
		c0.18-0.15,0.3-0.36,0.36-0.64c0.05-0.28,0.11-0.77,0.16-1.49l0.21-3.55c0.02-0.33,0.03-0.55,0.03-0.66c0-0.46-0.06-0.81-0.18-1.05
		c-0.12-0.24-0.29-0.41-0.52-0.49C6.32,72.56,6.01,72.5,5.62,72.47z"/>
	<path class="st1" d="M23.52,81.06v-0.22c0.21-0.04,0.38-0.08,0.5-0.14c0.13-0.06,0.19-0.16,0.19-0.3c0-0.13-0.04-0.32-0.12-0.57
		c-0.08-0.25-0.14-0.42-0.18-0.52l-0.51-1.37c-0.27-0.04-0.7-0.05-1.3-0.05h-0.54c-0.54-0.02-1.02,0.01-1.43,0.08l-0.5,1.26
		c-0.22,0.53-0.33,0.85-0.33,0.99c0,0.16,0.07,0.29,0.22,0.4c0.14,0.11,0.44,0.19,0.88,0.26v0.22c-0.53-0.06-0.99-0.1-1.36-0.1
		c-0.38,0-0.8,0.02-1.25,0.05v-0.2c0.27-0.07,0.48-0.17,0.63-0.32c0.11-0.1,0.25-0.32,0.43-0.68c0.18-0.36,0.36-0.74,0.55-1.16
		c0.18-0.42,0.32-0.75,0.4-0.98l1.1-2.6c0.14-0.31,0.28-0.64,0.42-0.98c0.14-0.34,0.28-0.68,0.41-1.03
		c0.13-0.34,0.22-0.62,0.28-0.83c0-0.06,0.01-0.1,0.04-0.13l0.23-0.01c0.14,0.5,0.3,0.99,0.47,1.45l1.44,3.83
		c0.37,0.96,0.65,1.66,0.84,2.12c0.19,0.45,0.35,0.78,0.5,0.98c0.12,0.17,0.36,0.27,0.73,0.31v0.24c-0.37-0.04-0.74-0.05-1.08-0.05
		c-0.27,0-0.53,0.01-0.76,0.02c-0.24,0.01-0.42,0.03-0.56,0.04C23.69,81.05,23.58,81.06,23.52,81.06z M21.35,74.94l-0.77,1.98
		c-0.1,0.28-0.18,0.46-0.21,0.53c0.35,0.05,0.75,0.08,1.2,0.08l0.63-0.01c0.38,0,0.72-0.01,1.02-0.03
		c-0.16-0.46-0.26-0.74-0.31-0.82l-0.49-1.25c-0.05-0.14-0.16-0.38-0.31-0.74c-0.15-0.36-0.26-0.6-0.33-0.73
		c-0.09,0.19-0.16,0.36-0.22,0.52C21.48,74.61,21.42,74.77,21.35,74.94z"/>
	<path class="st1" d="M30.8,78l-0.79-1.12c-0.6,0-1.1-0.03-1.5-0.09l-0.01,1.63c0,0.34,0.01,0.73,0.03,1.16
		c0.02,0.43,0.07,0.73,0.14,0.9c0.04,0.11,0.1,0.19,0.19,0.23c0.09,0.05,0.29,0.11,0.6,0.19c0.1,0.02,0.15,0.06,0.15,0.11
		c0,0.1-0.03,0.15-0.1,0.15c-0.07,0-0.26-0.02-0.58-0.07c-0.39-0.04-0.63-0.05-0.72-0.05c-0.44,0-0.9,0.03-1.37,0.1
		c-0.03,0-0.07,0-0.12,0.01c-0.09,0-0.14-0.04-0.14-0.12c0-0.05,0.02-0.08,0.05-0.1c0.03-0.02,0.11-0.05,0.23-0.08
		c0.21-0.05,0.35-0.14,0.45-0.25c0.09-0.11,0.16-0.33,0.2-0.65c0.04-0.32,0.06-0.85,0.07-1.56v-3.01c0.01-0.73,0.01-1.27-0.01-1.62
		c-0.02-0.34-0.05-0.6-0.11-0.76c-0.06-0.16-0.15-0.27-0.27-0.32c-0.12-0.05-0.32-0.1-0.58-0.13l0.03-0.22
		c0.24,0.01,0.55,0.01,0.92,0.01c0.11,0,0.51-0.03,1.2-0.09c0.69-0.06,1.12-0.08,1.3-0.08c0.48,0,0.91,0.07,1.29,0.2
		c0.38,0.13,0.7,0.31,0.96,0.52c0.26,0.22,0.45,0.47,0.59,0.75c0.13,0.28,0.2,0.57,0.2,0.86c0,0.3-0.07,0.6-0.21,0.88
		c-0.14,0.29-0.34,0.55-0.62,0.78c-0.28,0.23-0.64,0.43-1.08,0.6l0.31,0.46c0.43,0.64,0.79,1.16,1.07,1.56
		c0.28,0.4,0.59,0.78,0.91,1.15c0.33,0.37,0.66,0.67,1,0.89c0.34,0.23,0.67,0.36,0.99,0.38c0.09,0.01,0.13,0.06,0.13,0.14
		c0,0.04-0.02,0.07-0.06,0.09c-0.04,0.02-0.14,0.03-0.29,0.03c-0.44,0-0.87-0.1-1.28-0.29c-0.41-0.19-0.8-0.45-1.17-0.78
		c-0.37-0.33-0.7-0.67-0.99-1.03S31.19,78.56,30.8,78z M28.55,76.4c0.31,0.07,0.68,0.11,1.11,0.11c0.22,0,0.45-0.02,0.7-0.05
		c0.24-0.03,0.5-0.1,0.75-0.21c0.26-0.11,0.48-0.29,0.67-0.55c0.19-0.26,0.28-0.6,0.28-1.04c0-0.31-0.08-0.63-0.24-0.97
		c-0.16-0.34-0.41-0.63-0.75-0.87c-0.34-0.24-0.75-0.36-1.23-0.36c-0.2,0-0.43,0.03-0.68,0.08c-0.25,0.05-0.4,0.14-0.44,0.25
		C28.6,73.01,28.55,74.22,28.55,76.4z"/>
	<path class="st1" d="M42.63,79.67c-0.02,0.06-0.12,0.39-0.29,1.01c-0.49,0.14-0.94,0.26-1.34,0.34c-0.4,0.08-0.84,0.12-1.31,0.12
		c-0.57,0-1.13-0.1-1.7-0.3c-0.57-0.2-1.08-0.5-1.53-0.89c-0.45-0.39-0.81-0.87-1.08-1.43c-0.26-0.57-0.4-1.21-0.4-1.93
		c0-0.99,0.25-1.82,0.74-2.5c0.49-0.68,1.12-1.18,1.88-1.5c0.76-0.32,1.54-0.48,2.35-0.48c0.63,0,1.25,0.11,1.84,0.33
		c0.27,0.09,0.48,0.13,0.62,0.13c0.06-0.01,0.11-0.02,0.14-0.03s0.07-0.01,0.11-0.01c0.03,0,0.06,0.02,0.09,0.05l-0.1,0.39
		c-0.1,0.34-0.18,0.77-0.25,1.3c-0.08-0.01-0.14-0.04-0.16-0.08c-0.03-0.04-0.04-0.11-0.04-0.21c-0.01-0.29-0.05-0.48-0.12-0.58
		c-0.12-0.2-0.43-0.4-0.92-0.61c-0.49-0.21-0.99-0.31-1.49-0.31c-0.66,0-1.25,0.16-1.78,0.49c-0.53,0.32-0.95,0.8-1.26,1.43
		s-0.46,1.36-0.46,2.2c0,0.78,0.14,1.44,0.41,2c0.27,0.56,0.61,1,1.02,1.33s0.82,0.56,1.25,0.71s0.79,0.22,1.1,0.22
		c0.49,0,0.9-0.08,1.23-0.24c0.32-0.16,0.58-0.35,0.76-0.58c0.18-0.23,0.36-0.49,0.54-0.81c0.07-0.13,0.13-0.2,0.18-0.2
		c0.09,0,0.13,0.04,0.13,0.12C42.76,79.18,42.72,79.36,42.63,79.67z"/>
	<path class="st1" d="M43.46,81.12l-0.1-0.26c0.48-0.05,0.78-0.15,0.88-0.29c0.08-0.11,0.14-0.61,0.18-1.5
		c0.05-0.89,0.07-1.67,0.07-2.32l0.01-2.24c0-0.61-0.02-1.05-0.07-1.32c-0.04-0.27-0.13-0.44-0.27-0.53
		c-0.14-0.09-0.35-0.14-0.65-0.15l0.01-0.22c0.26-0.05,0.5-0.07,0.69-0.07c0.06,0,0.3,0.01,0.71,0.03c0.31,0.03,0.55,0.04,0.73,0.04
		l0.99-0.01c0,0.08,0,0.16,0.01,0.24l-0.36,0.05c-0.23,0.03-0.38,0.07-0.47,0.12c-0.08,0.05-0.14,0.14-0.18,0.28
		c-0.04,0.14-0.08,0.42-0.13,0.85c-0.05,0.41-0.07,0.89-0.07,1.45c0,0.46,0,0.82,0.01,1.09h3.24c1.24,0,2,0,2.29-0.01
		c0.29,0,0.5-0.02,0.64-0.05l0.01-1.43c0-0.78-0.01-1.27-0.02-1.46c-0.02-0.2-0.05-0.35-0.1-0.46c-0.05-0.14-0.13-0.24-0.25-0.3
		c-0.11-0.05-0.36-0.12-0.73-0.19l0.03-0.26c0.21,0.03,0.42,0.05,0.63,0.07c0.27,0.03,0.57,0.04,0.9,0.04
		c0.08,0,0.32-0.01,0.71-0.03c0.41-0.02,0.64-0.03,0.69-0.03l0.03,0.19c-0.06,0.02-0.11,0.03-0.13,0.04
		c-0.19,0.05-0.33,0.1-0.42,0.18s-0.17,0.19-0.21,0.34c-0.04,0.16-0.07,0.33-0.09,0.53c-0.01,0.2-0.03,0.68-0.05,1.46l-0.06,3.14
		c-0.02,0.86-0.01,1.48,0.03,1.86c0.04,0.38,0.13,0.62,0.26,0.73c0.13,0.11,0.36,0.19,0.68,0.22l-0.01,0.2
		c-0.18-0.04-0.4-0.07-0.66-0.08c-0.15-0.01-0.34-0.01-0.58-0.01c-0.08,0-0.36,0.01-0.82,0.03c-0.37,0.03-0.66,0.04-0.86,0.04
		l-0.03-0.24c0.31-0.04,0.53-0.1,0.66-0.18c0.13-0.09,0.21-0.22,0.25-0.41c0.04-0.19,0.07-0.52,0.08-0.99l0.04-1.54l-0.01-0.89
		l-0.76-0.03l-3.91-0.03l-1.49,0.01c-0.03,0.53-0.04,1.32-0.04,2.37c0,0.66,0.03,1.07,0.08,1.22c0.02,0.09,0.06,0.16,0.12,0.22
		c0.06,0.06,0.15,0.11,0.28,0.16c0.13,0.05,0.34,0.1,0.61,0.15l-0.01,0.22c-0.1,0-0.26-0.02-0.5-0.03c-0.24-0.02-0.47-0.03-0.7-0.04
		c-0.22-0.01-0.42-0.02-0.6-0.02C44.45,81.05,44.02,81.07,43.46,81.12z"/>
	<path class="st1" d="M59.88,81.06v-0.22c0.21-0.04,0.38-0.08,0.5-0.14s0.19-0.16,0.19-0.3c0-0.13-0.04-0.32-0.12-0.57
		c-0.08-0.25-0.14-0.42-0.18-0.52l-0.51-1.37c-0.27-0.04-0.7-0.05-1.3-0.05h-0.54c-0.54-0.02-1.02,0.01-1.43,0.08l-0.5,1.26
		c-0.22,0.53-0.33,0.85-0.33,0.99c0,0.16,0.07,0.29,0.22,0.4c0.14,0.11,0.44,0.19,0.88,0.26v0.22c-0.53-0.06-0.99-0.1-1.36-0.1
		c-0.38,0-0.8,0.02-1.25,0.05v-0.2c0.27-0.07,0.48-0.17,0.63-0.32c0.11-0.1,0.25-0.32,0.43-0.68c0.18-0.36,0.36-0.74,0.55-1.16
		c0.18-0.42,0.32-0.75,0.4-0.98l1.1-2.6c0.14-0.31,0.28-0.64,0.42-0.98c0.14-0.34,0.28-0.68,0.41-1.03
		c0.13-0.34,0.22-0.62,0.28-0.83c0-0.06,0.01-0.1,0.04-0.13l0.23-0.01c0.14,0.5,0.3,0.99,0.47,1.45l1.44,3.83
		c0.37,0.96,0.65,1.66,0.84,2.12c0.19,0.45,0.35,0.78,0.5,0.98c0.12,0.17,0.36,0.27,0.73,0.31v0.24c-0.37-0.04-0.74-0.05-1.08-0.05
		c-0.27,0-0.53,0.01-0.76,0.02c-0.24,0.01-0.42,0.03-0.56,0.04C60.06,81.05,59.95,81.06,59.88,81.06z M57.72,74.94l-0.77,1.98
		c-0.1,0.28-0.18,0.46-0.21,0.53c0.35,0.05,0.75,0.08,1.2,0.08l0.63-0.01c0.38,0,0.72-0.01,1.02-0.03
		c-0.16-0.46-0.26-0.74-0.31-0.82l-0.49-1.25c-0.05-0.14-0.16-0.38-0.31-0.74s-0.26-0.6-0.33-0.73c-0.09,0.19-0.16,0.36-0.22,0.52
		C57.85,74.61,57.79,74.77,57.72,74.94z"/>
	<path class="st1" d="M62.96,72.5v-0.28c0.41,0.03,0.67,0.04,0.79,0.05c0.11,0.01,0.25,0.01,0.4,0l0.59-0.01
		c0.27,0.34,0.6,0.71,0.97,1.09c0.37,0.39,0.78,0.8,1.24,1.24c0.46,0.44,0.72,0.69,0.78,0.75l4.04,3.81
		c0.04-0.57,0.05-1.43,0.05-2.58v-1.31c0-0.7-0.02-1.22-0.05-1.58c-0.03-0.35-0.1-0.61-0.2-0.78c-0.1-0.17-0.22-0.28-0.38-0.34
		c-0.16-0.06-0.42-0.11-0.78-0.17l0.08-0.19c0.06-0.01,0.18-0.01,0.34-0.01c0.14,0,0.28,0,0.42,0.01c0.14,0,0.31,0.02,0.5,0.03
		c0.11,0.01,0.23,0.01,0.36,0.01s0.22,0,0.3,0l0.87-0.01l0.01,0.23c-0.27,0.04-0.47,0.1-0.59,0.19s-0.2,0.23-0.25,0.43
		c-0.08,0.37-0.14,1.1-0.17,2.18c-0.03,1.08-0.05,2.12-0.05,3.09c0,0.39,0,0.75,0.01,1.11s0.01,0.67,0.02,0.95
		c0.01,0.28,0.02,0.54,0.04,0.78l-0.28-0.01c-0.32-0.68-1.26-1.75-2.85-3.21L66.6,75.6c-0.09-0.06-0.3-0.25-0.63-0.56
		s-0.76-0.71-1.27-1.18l-0.09,4.17c-0.02,0.86,0,1.46,0.05,1.8c0.06,0.34,0.19,0.57,0.39,0.68c0.2,0.11,0.58,0.22,1.14,0.33
		c0,0.1-0.01,0.18-0.03,0.26c-0.07,0-0.29-0.01-0.66-0.03c-0.37-0.02-0.6-0.03-0.68-0.03c-0.07,0-0.32,0.01-0.75,0.03
		c-0.07,0-0.17,0.01-0.29,0.02s-0.28,0.02-0.48,0.03c-0.06,0-0.11-0.01-0.14-0.04c-0.03-0.03-0.04-0.07-0.04-0.13
		c0-0.07,0.01-0.11,0.03-0.12c0.02-0.01,0.07-0.03,0.15-0.03c0.2-0.02,0.35-0.06,0.43-0.11s0.16-0.14,0.22-0.29
		c0.05-0.14,0.09-0.36,0.12-0.67c0.02-0.31,0.04-0.7,0.05-1.18l0.05-3.24c0.01-0.71,0-1.24-0.04-1.58
		c-0.04-0.34-0.14-0.62-0.31-0.84C63.65,72.68,63.37,72.55,62.96,72.5z"/>
	<path class="st1" d="M73.9,72.62l-0.01-0.26c1.22,0,2.25-0.05,3.09-0.15c0.31-0.04,0.63-0.06,0.97-0.06c0.68,0,1.33,0.1,1.95,0.3
		c0.62,0.2,1.17,0.49,1.66,0.87c0.48,0.38,0.86,0.84,1.14,1.39c0.28,0.55,0.41,1.16,0.41,1.84c0,0.82-0.21,1.58-0.64,2.26
		s-1.04,1.22-1.83,1.61c-0.79,0.39-1.7,0.59-2.71,0.59c-0.06,0-0.24,0-0.54-0.01c-0.3-0.01-0.48-0.01-0.53-0.01
		c-0.18,0-0.34,0-0.48,0c-0.14,0-0.34,0-0.61,0.01C75.5,81,75.25,81,75,81.01c-0.24,0.01-0.41,0.01-0.5,0.01l-0.67-0.01v-0.26
		c0.49,0,0.78-0.11,0.88-0.32c0.11-0.25,0.17-1.38,0.17-3.38c0-1.33-0.02-2.32-0.05-2.98s-0.1-1.06-0.19-1.22
		C74.53,72.68,74.28,72.6,73.9,72.62z M81.91,76.57c0-0.86-0.21-1.6-0.62-2.22c-0.41-0.62-0.94-1.09-1.58-1.4
		c-0.64-0.32-1.29-0.48-1.97-0.48c-0.66,0-1.25,0.12-1.78,0.35c-0.05,0.25-0.08,1.01-0.1,2.27c-0.02,1.26-0.03,2.35-0.03,3.26
		c0,0.04,0,0.21,0.01,0.51c0.01,0.3,0.01,0.61,0.02,0.92c0.01,0.31,0.01,0.49,0.01,0.53c0.46,0.14,0.82,0.25,1.06,0.3
		c0.25,0.06,0.56,0.08,0.93,0.08c0.95,0,1.72-0.2,2.33-0.61c0.61-0.41,1.04-0.92,1.31-1.55C81.78,77.91,81.91,77.25,81.91,76.57z"/>
	<path class="st1" d="M87.42,72.62l-0.01-0.26c1.22,0,2.25-0.05,3.09-0.15c0.31-0.04,0.63-0.06,0.97-0.06c0.68,0,1.33,0.1,1.95,0.3
		c0.62,0.2,1.17,0.49,1.66,0.87c0.48,0.38,0.86,0.84,1.14,1.39c0.28,0.55,0.41,1.16,0.41,1.84c0,0.82-0.21,1.58-0.64,2.26
		s-1.04,1.22-1.83,1.61c-0.79,0.39-1.7,0.59-2.71,0.59c-0.06,0-0.24,0-0.54-0.01c-0.3-0.01-0.48-0.01-0.53-0.01
		c-0.18,0-0.34,0-0.48,0c-0.14,0-0.34,0-0.61,0.01c-0.27,0-0.52,0.01-0.77,0.02c-0.24,0.01-0.41,0.01-0.5,0.01l-0.67-0.01v-0.26
		c0.49,0,0.78-0.11,0.88-0.32c0.11-0.25,0.17-1.38,0.17-3.38c0-1.33-0.02-2.32-0.05-2.98s-0.1-1.06-0.19-1.22
		C88.05,72.68,87.8,72.6,87.42,72.62z M95.44,76.57c0-0.86-0.21-1.6-0.62-2.22c-0.41-0.62-0.94-1.09-1.57-1.4
		c-0.64-0.32-1.29-0.48-1.97-0.48c-0.66,0-1.25,0.12-1.78,0.35c-0.05,0.25-0.08,1.01-0.1,2.27c-0.02,1.26-0.03,2.35-0.03,3.26
		c0,0.04,0,0.21,0.01,0.51c0.01,0.3,0.01,0.61,0.02,0.92c0.01,0.31,0.01,0.49,0.01,0.53c0.46,0.14,0.82,0.25,1.06,0.3
		c0.25,0.06,0.56,0.08,0.93,0.08c0.95,0,1.72-0.2,2.33-0.61c0.61-0.41,1.04-0.92,1.31-1.55C95.3,77.91,95.44,77.25,95.44,76.57z"/>
	<path class="st1" d="M104.53,79.04h0.21c-0.07,0.47-0.15,0.86-0.24,1.17c-0.09,0.31-0.2,0.61-0.34,0.89
		c-0.15-0.01-0.36-0.02-0.62-0.03c-0.26-0.01-0.63-0.01-1.1-0.01c-0.28,0-0.59,0-0.91-0.01c-0.32-0.01-0.46-0.01-0.42-0.01
		c-0.3,0-0.64,0-1.04,0.01c-0.4,0.01-0.87,0.02-1.43,0.04c-0.56,0.02-0.97,0.03-1.23,0.05l0.01-0.23c0.14-0.03,0.29-0.07,0.43-0.1
		c0.15-0.04,0.25-0.08,0.3-0.13c0.05-0.05,0.09-0.1,0.11-0.17c0.02-0.07,0.05-0.18,0.07-0.36c0.03-0.17,0.05-0.48,0.08-0.94
		c0.02-0.45,0.05-0.96,0.06-1.52c0.02-0.56,0.02-0.91,0.02-1.05l-0.05-2.16c-0.01-0.67-0.04-1.12-0.08-1.36
		c-0.04-0.24-0.11-0.39-0.22-0.47c-0.11-0.08-0.32-0.14-0.62-0.2c0-0.07,0-0.13,0.01-0.18h4.39c0.49,0,1.24-0.02,2.23-0.05
		c-0.02,0.39-0.06,0.78-0.12,1.17s-0.14,0.58-0.23,0.58c-0.11,0-0.17-0.03-0.17-0.1c0-0.03,0.01-0.11,0.03-0.26
		c0.02-0.14,0.03-0.23,0.03-0.25c0-0.33-0.2-0.54-0.6-0.63c-0.4-0.09-0.88-0.14-1.43-0.14c-0.67,0-1.37,0.05-2.1,0.14
		c-0.08,0.75-0.12,1.39-0.12,1.9c0,0.34,0,0.72,0.01,1.16c0,0.44,0.01,0.64,0.01,0.61c0.11,0.01,0.45,0.01,1.01,0.01
		c0.97,0,1.63-0.02,1.99-0.05c0.21-0.02,0.34-0.05,0.41-0.08c0.07-0.03,0.14-0.11,0.2-0.24c0.06-0.13,0.14-0.33,0.21-0.6l0.2,0.01
		c0,0.47,0,0.89,0,1.26c0,0.37-0.01,0.8-0.01,1.28h-0.24c-0.01-0.42-0.08-0.71-0.19-0.87c-0.11-0.16-0.33-0.27-0.65-0.31
		c-0.32-0.05-0.89-0.07-1.71-0.07c-0.53,0-0.94,0.02-1.23,0.07l-0.03,0.97c-0.03,1.18,0.01,2.09,0.12,2.73
		c0.08,0.02,0.18,0.05,0.29,0.07c0.11,0.03,0.22,0.05,0.32,0.07c0.1,0.02,0.25,0.03,0.44,0.05c0.19,0.02,0.43,0.02,0.72,0.02
		c0.72,0,1.28-0.05,1.69-0.16c0.41-0.1,0.72-0.27,0.94-0.5C104.19,79.81,104.37,79.48,104.53,79.04z"/>
	<path class="st1" d="M107.23,72.44l0.03-0.24l0.55,0.01l1.12,0.04c0.1,0,0.2-0.01,0.29-0.01c0.09,0,0.22,0,0.39,0l0.68,0.01
		l0.01,0.22c-0.4,0.03-0.65,0.05-0.74,0.08c-0.09,0.03-0.14,0.08-0.14,0.17c0,0.12,0.09,0.42,0.28,0.89
		c0.19,0.47,0.42,1.01,0.7,1.63c0.28,0.61,0.48,1.06,0.6,1.33l0.96,2.05l0.19,0.39c0.13,0.26,0.22,0.46,0.28,0.58
		c0.15-0.27,0.34-0.62,0.55-1.06c0.21-0.43,0.42-0.85,0.6-1.25c0.19-0.4,0.29-0.63,0.31-0.67l0.9-1.95c0.13-0.29,0.26-0.6,0.39-0.93
		c0.13-0.34,0.2-0.58,0.2-0.72c0-0.3-0.25-0.47-0.75-0.51l0.04-0.28c0.53,0.05,1.06,0.07,1.62,0.07c0.15,0,0.28-0.01,0.39-0.01
		c0.11,0,0.26,0,0.43,0v0.19c-0.3,0.1-0.53,0.21-0.68,0.32c-0.15,0.12-0.3,0.3-0.45,0.55c-0.15,0.25-0.41,0.75-0.77,1.48l-1.54,3.05
		c-0.29,0.56-0.58,1.18-0.86,1.85c-0.29,0.67-0.45,1.17-0.5,1.5l-0.21,0.03c-0.1-0.3-0.22-0.58-0.35-0.85l-0.47-1.02
		c-0.14-0.36-0.33-0.79-0.58-1.29l-1.15-2.41c-0.85-1.75-1.36-2.73-1.53-2.91c-0.11-0.12-0.22-0.2-0.34-0.23
		C107.59,72.47,107.43,72.45,107.23,72.44z"/>
	<path class="st1" d="M117.46,72.51v-0.29c0.52,0.03,0.84,0.05,0.97,0.05c0.47,0.02,0.78,0.03,0.94,0.03c0.05,0,0.29-0.01,0.71-0.03
		c0.42-0.02,0.82-0.04,1.18-0.05v0.32c-0.4,0-0.68,0.02-0.82,0.07c-0.15,0.04-0.26,0.13-0.33,0.25c-0.15,0.29-0.23,1.38-0.23,3.27
		c0,1.31,0,2.13,0,2.48c0,0.35,0.01,0.72,0.02,1.11c0.01,0.32,0.03,0.54,0.08,0.67c0.04,0.13,0.15,0.23,0.34,0.3
		c0.18,0.07,0.48,0.1,0.88,0.11l-0.03,0.26c-0.06,0-0.19,0-0.38-0.01c-0.19-0.01-0.39-0.01-0.59-0.02c-0.2,0-0.36-0.01-0.47-0.01
		c-0.11,0-0.23,0-0.38,0c-0.2,0-0.37,0-0.5,0c-0.13,0-0.31,0-0.54,0.01c-0.22,0-0.43,0.01-0.61,0.02c-0.18,0.01-0.29,0.01-0.33,0.01
		l-0.01-0.26c0.49-0.03,0.83-0.08,1-0.17c0.17-0.09,0.29-0.22,0.36-0.41c0.09-0.24,0.15-0.71,0.18-1.39
		c0.02-0.68,0.04-1.4,0.04-2.16c0-0.68-0.02-1.67-0.07-2.95c-0.01-0.35-0.05-0.61-0.11-0.76c-0.06-0.15-0.19-0.26-0.38-0.34
		C118.19,72.56,117.88,72.52,117.46,72.51z"/>
	<path class="st1" d="M121.8,72.5v-0.28c0.41,0.03,0.67,0.04,0.79,0.05c0.11,0.01,0.25,0.01,0.4,0l0.59-0.01
		c0.27,0.34,0.6,0.71,0.97,1.09c0.37,0.39,0.78,0.8,1.24,1.24c0.46,0.44,0.72,0.69,0.78,0.75l4.04,3.81
		c0.04-0.57,0.05-1.43,0.05-2.58v-1.31c0-0.7-0.02-1.22-0.05-1.58c-0.03-0.35-0.1-0.61-0.19-0.78c-0.1-0.17-0.22-0.28-0.38-0.34
		c-0.16-0.06-0.42-0.11-0.78-0.17l0.08-0.19c0.06-0.01,0.18-0.01,0.34-0.01c0.14,0,0.28,0,0.42,0.01c0.14,0,0.31,0.02,0.5,0.03
		c0.11,0.01,0.23,0.01,0.36,0.01c0.12,0,0.22,0,0.3,0l0.87-0.01l0.01,0.23c-0.27,0.04-0.47,0.1-0.59,0.19s-0.2,0.23-0.25,0.43
		c-0.08,0.37-0.14,1.1-0.18,2.18c-0.03,1.08-0.05,2.12-0.05,3.09c0,0.39,0,0.75,0.01,1.11c0.01,0.35,0.02,0.67,0.02,0.95
		c0.01,0.28,0.02,0.54,0.04,0.78l-0.28-0.01c-0.32-0.68-1.27-1.75-2.85-3.21l-2.57-2.38c-0.09-0.06-0.3-0.25-0.63-0.56
		c-0.34-0.31-0.76-0.71-1.27-1.18l-0.09,4.17c-0.02,0.86,0,1.46,0.05,1.8c0.06,0.34,0.19,0.57,0.39,0.68
		c0.2,0.11,0.58,0.22,1.14,0.33c0,0.1-0.01,0.18-0.03,0.26c-0.07,0-0.29-0.01-0.66-0.03c-0.37-0.02-0.6-0.03-0.68-0.03
		c-0.07,0-0.32,0.01-0.75,0.03c-0.07,0-0.17,0.01-0.29,0.02s-0.28,0.02-0.48,0.03c-0.06,0-0.11-0.01-0.14-0.04
		c-0.03-0.03-0.04-0.07-0.04-0.13c0-0.07,0.01-0.11,0.03-0.12c0.02-0.01,0.07-0.03,0.15-0.03c0.2-0.02,0.35-0.06,0.43-0.11
		c0.09-0.05,0.16-0.14,0.22-0.29c0.05-0.14,0.09-0.36,0.12-0.67c0.02-0.31,0.04-0.7,0.05-1.18l0.05-3.24c0.01-0.71,0-1.24-0.04-1.58
		c-0.04-0.34-0.14-0.62-0.31-0.84C122.49,72.68,122.21,72.55,121.8,72.5z"/>
</g>
</svg>
