<?xml version="1.0" encoding="utf-8"?>
<!-- Generator: Adobe Illustrator 24.3.0, SVG Export Plug-In . SVG Version: 6.00 Build 0)  -->
<svg version="1.1" id="Calque_1" xmlns="http://www.w3.org/2000/svg" xmlns:xlink="http://www.w3.org/1999/xlink" x="0px" y="0px"
	 viewBox="0 0 184.3 82.2" style="enable-background:new 0 0 184.3 82.2;" xml:space="preserve">
<style type="text/css">
	.st0{fill:#9A633B;}
</style>
<g>
	<path class="st0" d="M53.1,36.4C57,39.5,59,43.1,59,47.2c0,5.7-2.4,10.1-7.1,13.2C47.2,63.5,40.6,65,32.2,65c-1.9,0-3.5,0-4.8-0.1
		c-4.3-0.1-8.4-0.2-12.5-0.2C8.3,64.8,3.3,64.9,0,65v-1.8c2.1-0.1,3.7-0.4,4.7-0.7c1-0.4,1.7-1.1,2-2.1c0.4-1,0.5-2.7,0.5-5V9.8
		c0-2.3-0.2-4-0.5-5c-0.4-1-1-1.7-2-2.1C3.7,2.3,2.1,2,0,1.9V0.1c3.3,0.2,8.2,0.3,14.7,0.3l10.8-0.1c1.3-0.1,2.8-0.1,4.5-0.1
		c7.8,0,13.7,1.3,17.8,3.9c4.1,2.6,6.2,6.1,6.2,10.5c0,3.5-1.6,6.9-4.9,9.9c-3.3,3.1-8.1,5.1-14.5,6.2v0.2
		C43,31.5,49.1,33.4,53.1,36.4z M24.9,2.6c-0.8,0.4-1.4,1.2-1.7,2.3c-0.3,1.1-0.5,2.8-0.5,5v20.7h4.2c4.2,0,7.1-1.4,8.8-4.1
		c1.7-2.7,2.5-6.3,2.5-10.9c0-4.6-0.8-8-2.3-10.3c-1.5-2.3-3.9-3.4-7.2-3.4C27,1.9,25.7,2.1,24.9,2.6z M42.9,46.9
		c0-4.8-1.3-8.5-3.9-11c-2.6-2.5-6.7-3.8-12.2-3.8h-4.1v23.2c0,2.2,0.2,3.8,0.5,4.9c0.3,1,1,1.8,1.9,2.2c0.9,0.4,2.4,0.6,4.3,0.6
		C38.4,62.9,42.9,57.6,42.9,46.9z"/>
	<path class="st0" d="M143.6,2.7c-1,0.4-1.6,1.1-2,2.1c-0.4,1-0.5,2.7-0.5,5v45.5c0,2.3,0.2,4,0.5,5c0.4,1,1,1.7,2,2.1
		c1,0.4,2.6,0.6,4.7,0.7V65c-3.6-0.2-8.6-0.3-15.2-0.3c-6.9,0-12,0.1-15.3,0.3v-1.8c2.3-0.1,4-0.4,5.1-0.7s1.8-1.1,2.2-2.1
		c0.4-1,0.6-2.7,0.6-5v-48l-23.4,57.8h-1.6L74.5,6.1V50c0,3.6,0.2,6.3,0.6,7.9s1.2,2.9,2.5,3.7c1.3,0.8,3.4,1.3,6.3,1.6V65
		c-2.5-0.2-6-0.3-10.5-0.3c-3.6,0-6.4,0.1-8.4,0.3v-1.8c2.1-0.3,3.7-0.8,4.7-1.6c1-0.7,1.7-1.9,2-3.5c0.4-1.6,0.5-3.9,0.5-7.1V9.8
		c0-2.3-0.2-4-0.5-5c-0.4-1-1-1.7-2-2.1c-1-0.4-2.6-0.6-4.7-0.7V0.1c2.1,0.2,4.9,0.3,8.4,0.3c6,0,11.1-0.1,15.3-0.3l19.6,44.7
		l17.9-44.4h6.9c6.6,0,11.7-0.1,15.2-0.3v1.8C146.2,2,144.6,2.3,143.6,2.7z"/>
	<path class="st0" d="M149.3,80.5c2.7-0.2,5-1,6.7-2.2c1.8-1.3,3.1-3.3,4.1-6.2c0.9-2.9,1.4-6.9,1.4-11.9V9.8c0-2.3-0.2-4-0.5-5
		c-0.4-1-1-1.7-2-2.1c-1-0.4-2.6-0.6-4.7-0.7V0.1c3.2,0.2,8.1,0.3,14.7,0.3c6.7,0,11.8-0.1,15.3-0.3v1.8c-2.2,0.1-3.8,0.4-4.8,0.7
		c-1,0.4-1.6,1.1-2,2.1c-0.4,1-0.5,2.7-0.5,5v33.6V49c0,8.6-0.6,14.7-1.6,18.3c-1.4,4.5-4.3,8.1-8.7,10.8
		c-4.4,2.8-10.2,4.1-17.3,4.1V80.5z"/>
</g>
</svg>
