<?xml version="1.0" encoding="utf-8"?>
<!-- Generator: Adobe Illustrator 24.3.0, SVG Export Plug-In . SVG Version: 6.00 Build 0)  -->
<svg version="1.1" id="Calque_1" xmlns="http://www.w3.org/2000/svg" xmlns:xlink="http://www.w3.org/1999/xlink" x="0px" y="0px"
	 viewBox="0 0 153.1 263.6" style="enable-background:new 0 0 153.1 263.6;" xml:space="preserve">
<style type="text/css">
	.st0{fill:#952C28;}
	.st1{fill:#FFFFFF;}
	.st2{fill:#CA1B21;}
	.st3{fill:#CA1C21;}
	.st4{fill:#9A633B;}
</style>
<g>
	<rect x="15.8" y="0" class="st0" width="120.6" height="192.1"/>
	<path class="st1" d="M132.9,68.1c-0.9-10.4-3.5-20.5-7.4-30.2C121.1,26.9,116.7,16,109,6.6c-1-0.8-2.2-0.8-3.4-1
		C95.8,4.3,86,3.9,76.2,3.8v0c0,0-0.1,0-0.1,0c0,0-0.1,0-0.1,0v0c-9.8,0-19.6,0.4-29.3,1.8c-1.2,0.2-2.4,0.2-3.4,1
		C35.6,16,31.1,26.9,26.7,37.8c-3.9,9.7-6.6,19.8-7.4,30.2c-0.8,9.1,2.7,17,9,23.8c5.6,6,12.7,10.5,20,14.3
		c4.8,2.5,9.5,5.3,14.4,7.7c7.2,3.4,10.1,8.9,10.4,16.1c0.1,2.3,0.1,4.6,0.1,6.9c0,8.1-0.1,16.1,0,24.2c0,3.4,0,32.6,0,34.8H76h0.2
		h2.6c0-2.2,0-31.4,0-34.8c0.1-8.1,0-16.1,0-24.2c0-2.3,0-4.6,0.1-6.9c0.3-7.1,3.2-12.7,10.4-16.1c4.9-2.3,9.6-5.1,14.4-7.7
		c7.4-3.9,14.4-8.3,20-14.3C130.2,85.1,133.7,77.2,132.9,68.1z"/>
	<g>
		<path class="st0" d="M128.2,65.4c-16.8,2-33.7,2.9-50.6,2.9c-16.9,0-33.8-0.9-50.6-2.9c-2.4,7.8,0.7,14.3,5.5,20.4
			c4.4,5.5,10.4,9.2,16.7,12.7c7.4,4.1,15.7,6.7,22.3,12.1c0.8,0.7,3.3,1,6,1v0c0,0,0.1,0,0.1,0c0,0,0.1,0,0.1,0v0
			c2.6,0,2.8-0.3,3.6-1c6.6-5.3,17.3-8,24.6-12.1c6.3-3.5,12.3-7.2,16.7-12.7C127.5,79.7,130.6,73.1,128.2,65.4z"/>
		<ellipse class="st2" cx="77.6" cy="65.4" rx="50.6" ry="3.8"/>
	</g>
	<ellipse class="st3" cx="76.2" cy="6.8" rx="33.2" ry="3.6"/>
</g>
<g>
	<path class="st4" d="M44.2,225.8c3.3,2.5,4.9,5.5,4.9,8.9c0,4.7-2,8.3-5.9,10.9c-3.9,2.5-9.4,3.8-16.4,3.8c-1.6,0-2.9,0-3.9-0.1
		c-3.5-0.1-7-0.2-10.4-0.2c-5.5,0-9.7,0.1-12.4,0.2v-1.5c1.8-0.1,3.1-0.3,3.9-0.6c0.8-0.3,1.4-0.9,1.7-1.7c0.3-0.9,0.4-2.2,0.4-4.2
		v-37.5c0-1.9-0.1-3.3-0.4-4.2c-0.3-0.9-0.9-1.4-1.7-1.7c-0.8-0.3-2.1-0.5-3.9-0.6v-1.5c2.7,0.2,6.8,0.2,12.3,0.2l8.9-0.1
		c1.1,0,2.3-0.1,3.7-0.1c6.4,0,11.4,1.1,14.8,3.3c3.4,2.2,5.1,5,5.1,8.6c0,2.9-1.4,5.6-4.1,8.2c-2.7,2.5-6.7,4.2-12.1,5.1v0.2
		C35.8,221.8,40.9,223.3,44.2,225.8z M20.8,197.9c-0.7,0.4-1.1,1-1.4,1.9c-0.3,0.9-0.4,2.3-0.4,4.1V221h3.5c3.5,0,5.9-1.1,7.3-3.4
		c1.4-2.2,2.1-5.2,2.1-9c0-3.8-0.6-6.6-1.9-8.5c-1.3-1.9-3.3-2.8-6-2.8C22.5,197.4,21.5,197.6,20.8,197.9z M35.7,234.4
		c0-4-1.1-7-3.2-9.1c-2.2-2.1-5.5-3.1-10.2-3.1H19v19.1c0,1.8,0.1,3.2,0.4,4c0.3,0.9,0.8,1.4,1.6,1.8c0.8,0.3,2,0.5,3.6,0.5
		C32,247.7,35.7,243.3,35.7,234.4z"/>
	<path class="st4" d="M119.4,198c-0.8,0.3-1.4,0.9-1.7,1.7c-0.3,0.9-0.4,2.2-0.4,4.2v37.5c0,1.9,0.1,3.3,0.4,4.2
		c0.3,0.9,0.9,1.4,1.7,1.7c0.8,0.3,2.1,0.5,3.9,0.6v1.5c-3-0.2-7.2-0.2-12.7-0.2c-5.8,0-10,0.1-12.7,0.2v-1.5
		c1.9-0.1,3.3-0.3,4.2-0.6s1.5-0.9,1.8-1.7c0.3-0.9,0.5-2.2,0.5-4.2v-39.5l-19.4,47.6h-1.3L62,200.8V237c0,3,0.2,5.2,0.5,6.5
		s1,2.4,2.1,3c1.1,0.6,2.8,1.1,5.2,1.3v1.5c-2.1-0.2-5-0.2-8.7-0.2c-3,0-5.3,0.1-7,0.2v-1.5c1.8-0.3,3.1-0.7,3.9-1.3
		c0.8-0.6,1.4-1.6,1.7-2.9c0.3-1.3,0.4-3.3,0.4-5.8v-34c0-1.9-0.1-3.3-0.4-4.2c-0.3-0.9-0.9-1.4-1.7-1.7c-0.8-0.3-2.1-0.5-3.9-0.6
		v-1.5c1.7,0.2,4.1,0.2,7,0.2c4.9,0,9.2-0.1,12.7-0.2l16.3,36.8l14.8-36.6h5.7c5.5,0,9.7-0.1,12.7-0.2v1.5
		C121.5,197.5,120.2,197.7,119.4,198z"/>
	<path class="st4" d="M124.2,262.1c2.3-0.2,4.1-0.8,5.6-1.9c1.5-1,2.6-2.7,3.4-5.1c0.8-2.4,1.2-5.7,1.2-9.8v-41.4
		c0-1.9-0.1-3.3-0.4-4.2c-0.3-0.9-0.9-1.4-1.7-1.7c-0.8-0.3-2.1-0.5-3.9-0.6v-1.5c2.7,0.2,6.7,0.2,12.2,0.2c5.5,0,9.8-0.1,12.7-0.2
		v1.5c-1.8,0.1-3.1,0.3-3.9,0.6c-0.8,0.3-1.4,0.9-1.7,1.7c-0.3,0.9-0.4,2.2-0.4,4.2v27.7v4.6c0,7.1-0.5,12.1-1.4,15.1
		c-1.1,3.7-3.5,6.7-7.2,8.9c-3.7,2.3-8.5,3.4-14.4,3.4V262.1z"/>
</g>
</svg>
