<?xml version="1.0" standalone="no"?>
<!DOCTYPE svg PUBLIC "-//W3C//DTD SVG 20010904//EN"
 "http://www.w3.org/TR/2001/REC-SVG-20010904/DTD/svg10.dtd">
<svg version="1.0" xmlns="http://www.w3.org/2000/svg"
 width="300.000000pt" height="118.000000pt" viewBox="0 0 300.000000 118.000000"
 preserveAspectRatio="xMidYMid meet">
<metadata>
Created by potrace 1.10, written by Peter Selinger 2001-2011
</metadata>
<g transform="translate(0.000000,118.000000) scale(0.100000,-0.100000)"
fill="#ffffff" stroke="none">
<path d="M740 978 c-2 -7 -13 -165 -14 -185 -1 -13 -4 -23 -8 -23 -5 0 -8 -5
-8 -11 0 -5 5 -7 10 -4 18 11 10 -2 -20 -35 l-30 -32 8 49 c10 68 9 217 -2
221 -5 2 -17 -21 -26 -50 -31 -99 -95 -214 -263 -476 -26 -40 -47 -75 -47 -78
0 -6 -39 -63 -64 -92 -11 -12 -16 -22 -13 -22 4 0 0 -11 -9 -25 -9 -14 -15
-28 -12 -30 2 -2 28 8 58 23 69 34 182 38 243 9 20 -10 37 -21 37 -25 0 -4 23
-8 50 -10 49 -3 50 -2 50 26 l0 28 113 12 c61 7 175 19 252 27 151 17 474 45
516 45 25 0 26 -3 33 -67 8 -85 16 -115 29 -110 8 2 66 149 67 170 1 24 -21
-10 -35 -56 -25 -75 -35 -80 -35 -15 0 31 -2 63 -5 70 -4 11 21 16 122 26 70
6 193 19 273 27 80 9 155 13 168 10 19 -5 23 -2 20 12 -4 20 -3 20 -158 4
-215 -23 -226 -23 -207 -11 10 6 23 23 28 37 l10 26 15 -21 c19 -27 44 -28 76
-3 16 13 29 16 38 11 18 -11 67 -2 106 20 26 15 33 15 49 4 29 -22 95 -18 121
7 l22 21 61 -22 c34 -13 61 -28 61 -36 0 -7 -22 -30 -50 -51 -82 -63 -78 -114
9 -112 l46 1 -44 12 c-25 6 -46 17 -48 23 -2 6 17 27 43 47 26 20 54 46 62 57
21 31 -4 60 -72 83 -32 11 -62 28 -68 39 -7 14 -13 16 -21 8 -7 -7 -6 -15 3
-26 11 -13 7 -17 -25 -30 -49 -21 -111 -2 -99 30 3 7 1 16 -5 19 -5 4 -12 -2
-16 -13 -8 -25 -43 -48 -89 -57 -33 -6 -38 -4 -43 15 -6 23 -23 29 -23 8 0
-20 -33 -47 -57 -47 -16 0 -23 8 -28 31 -9 39 -19 34 -48 -21 -30 -57 -53 -59
-81 -6 -25 47 -46 58 -45 24 1 -13 -2 -39 -5 -58 l-6 -35 16 35 c11 24 18 30
22 20 2 -8 14 -25 25 -37 l20 -23 -30 0 c-16 0 -58 -3 -92 -6 l-61 -7 0 96 c0
99 -15 138 -26 69 -5 -31 -14 -44 -48 -66 -29 -19 -51 -26 -76 -24 -35 3 -35
3 -35 53 0 38 -4 50 -15 50 -10 0 -16 -11 -17 -34 -2 -39 -28 -65 -83 -81 -44
-12 -61 2 -36 29 10 11 21 41 23 66 5 37 3 45 -10 45 -21 0 -39 -34 -46 -84
-5 -35 -11 -42 -61 -67 -67 -35 -95 -36 -114 -6 -14 20 -13 27 1 67 19 54 22
155 6 171 -20 20 -36 -30 -42 -133 -6 -94 -7 -98 -41 -133 -35 -36 -79 -65
-100 -65 -6 0 5 21 24 46 65 85 81 129 80 225 0 74 -4 92 -27 131 -42 72 -72
73 -111 4 -24 -42 -53 -149 -60 -221 -4 -46 14 -130 34 -162 17 -26 7 -41 -15
-23 -20 17 -32 5 -15 -15 11 -13 9 -15 -13 -15 -13 0 -38 -3 -55 -6 -28 -6
-31 -4 -28 17 2 13 9 38 16 54 17 42 66 211 78 268 13 63 -2 137 -30 145 -20
5 -20 10 -14 118 5 79 4 114 -3 114 -6 0 -11 -1 -11 -2z m-80 -210 c-9 -87
-17 -121 -34 -148 -115 -175 -171 -289 -163 -329 6 -27 5 -27 -42 -28 -27 0
-65 -6 -85 -13 -21 -7 -39 -10 -41 -8 -3 2 32 60 77 129 159 244 257 417 283
497 14 48 16 10 5 -100z m114 -60 c11 -41 6 -102 -14 -177 -25 -94 -34 -103
-26 -26 3 33 8 97 12 143 6 81 16 103 28 60z m178 -20 c33 -63 31 -174 -3
-248 -26 -55 -74 -120 -89 -120 -16 0 -40 82 -40 138 0 120 53 272 95 272 8 0
25 -19 37 -42z m-231 -110 c-9 -126 -39 -308 -51 -308 -3 0 -5 21 -4 47 1 26
-4 67 -12 92 -12 40 -12 60 2 154 12 76 20 107 30 107 8 0 14 6 14 14 0 12 20
27 27 22 1 -1 -1 -59 -6 -128z m-110 -154 l-28 -169 -38 1 c-46 2 -69 27 -60
64 12 45 143 286 151 277 2 -2 -9 -79 -25 -173z m450 86 c-9 -23 -10 -21 -10
17 -1 56 13 91 17 43 2 -20 -1 -47 -7 -60z m217 -21 c-6 -16 -12 -28 -15 -26
-7 7 8 57 18 57 4 0 3 -14 -3 -31z m311 -94 l0 -55 -45 0 c-66 0 -391 -28
-514 -45 -107 -14 -132 -13 -87 4 14 5 40 28 58 50 32 41 33 41 51 21 26 -28
73 -25 135 9 44 24 54 27 64 15 17 -21 48 -17 102 11 26 14 47 21 47 15 0 -6
12 -15 26 -20 32 -13 92 2 126 30 12 11 26 19 29 20 4 0 7 -25 8 -55z m-862 8
c-3 -10 -5 -4 -5 12 0 17 2 24 5 18 2 -7 2 -21 0 -30z m-78 -89 c-1 -55 -4
-64 -20 -64 -22 0 -24 17 -8 90 14 67 30 54 28 -26z m226 -34 c-3 -5 -10 -10
-16 -10 -5 0 -9 5 -9 10 0 6 7 10 16 10 8 0 12 -4 9 -10z m-218 -76 c-7 -7
-57 7 -57 16 0 15 55 16 58 2 2 -8 2 -16 -1 -18z"/>
<path d="M2457 270 c6 -24 19 -26 27 -4 9 23 8 24 -13 24 -14 0 -18 -5 -14
-20z"/>
</g>
</svg>
